<?xml version="1.0" encoding="UTF-8"?>
<svg xmlns="http://www.w3.org/2000/svg" xmlns:xlink="http://www.w3.org/1999/xlink" width="48px" height="48px" viewBox="0 0 48 48" version="1.1">
<g id="surface1">
<path style=" stroke:none;fill-rule:nonzero;fill:rgb(0%,0%,0%);fill-opacity:1;" d="M 0 0 C 15.839844 0 31.679688 0 48 0 C 48 15.839844 48 31.679688 48 48 C 32.160156 48 16.320312 48 0 48 C 0 32.160156 0 16.320312 0 0 Z M 17.089844 12.671875 C 17.054688 12.796875 17.023438 12.925781 16.992188 13.054688 C 17.117188 13.085938 17.246094 13.121094 17.375 13.152344 C 17.449219 13.414062 17.484375 13.648438 17.488281 13.921875 C 17.488281 13.996094 17.488281 14.074219 17.488281 14.152344 C 17.488281 14.234375 17.488281 14.316406 17.492188 14.398438 C 17.492188 14.53125 17.492188 14.53125 17.492188 14.664062 C 17.496094 14.953125 17.496094 15.242188 17.5 15.53125 C 17.5 15.628906 17.5 15.726562 17.5 15.828125 C 17.503906 16.351562 17.503906 16.871094 17.503906 17.394531 C 17.507812 17.824219 17.507812 18.257812 17.511719 18.6875 C 17.519531 19.210938 17.519531 19.730469 17.519531 20.253906 C 17.523438 20.453125 17.523438 20.652344 17.527344 20.851562 C 17.527344 21.128906 17.527344 21.40625 17.527344 21.683594 C 17.53125 21.765625 17.53125 21.847656 17.53125 21.933594 C 17.527344 22.355469 17.523438 22.503906 17.226562 22.832031 C 17.152344 22.898438 17.074219 22.96875 16.992188 23.039062 C 16.992188 23.167969 16.992188 23.292969 16.992188 23.425781 C 18.289062 23.390625 19.589844 23.359375 20.929688 23.328125 C 20.894531 23.234375 20.863281 23.136719 20.832031 23.039062 C 20.765625 23.039062 20.703125 23.035156 20.636719 23.03125 C 20.550781 23.027344 20.464844 23.023438 20.375 23.015625 C 20.292969 23.011719 20.207031 23.007812 20.121094 23.003906 C 19.785156 22.921875 19.691406 22.835938 19.488281 22.558594 C 19.429688 22.253906 19.433594 21.953125 19.4375 21.644531 C 19.433594 21.550781 19.433594 21.457031 19.433594 21.363281 C 19.429688 21.054688 19.429688 20.75 19.429688 20.445312 C 19.429688 20.230469 19.425781 20.019531 19.425781 19.804688 C 19.421875 19.246094 19.417969 18.6875 19.417969 18.128906 C 19.414062 17.558594 19.410156 16.988281 19.40625 16.414062 C 19.398438 15.296875 19.394531 14.175781 19.390625 13.054688 C 19.683594 13.082031 19.972656 13.109375 20.265625 13.136719 C 20.386719 13.148438 20.386719 13.148438 20.511719 13.160156 C 21.472656 13.257812 22.246094 13.574219 22.988281 14.195312 C 23.132812 14.324219 23.132812 14.324219 23.328125 14.304688 C 23.367188 14.386719 23.367188 14.386719 23.40625 14.46875 C 23.566406 14.78125 23.753906 15.078125 23.9375 15.375 C 24.132812 15.714844 24.304688 16.066406 24.480469 16.414062 C 25.144531 16.449219 25.8125 16.480469 26.496094 16.511719 C 26.09375 15.175781 25.515625 14.171875 24.277344 13.460938 C 22.96875 12.824219 21.65625 12.652344 20.21875 12.664062 C 20.128906 12.664062 20.039062 12.664062 19.945312 12.664062 C 19.660156 12.664062 19.375 12.664062 19.09375 12.664062 C 18.898438 12.667969 18.703125 12.667969 18.507812 12.667969 C 18.035156 12.667969 17.5625 12.671875 17.089844 12.671875 Z M 20.832031 17.089844 C 20.859375 17.277344 20.859375 17.277344 20.929688 17.472656 C 21.023438 17.503906 21.117188 17.535156 21.214844 17.566406 C 21.644531 18.496094 21.542969 19.625 21.539062 20.621094 C 21.539062 20.804688 21.539062 20.988281 21.539062 21.171875 C 21.539062 21.554688 21.539062 21.933594 21.535156 22.316406 C 21.535156 22.804688 21.535156 23.292969 21.535156 23.777344 C 21.535156 24.15625 21.535156 24.53125 21.535156 24.910156 C 21.53125 25.089844 21.53125 25.269531 21.53125 25.449219 C 21.535156 27.902344 21.535156 27.902344 21.058594 28.386719 C 20.984375 28.425781 20.910156 28.46875 20.832031 28.511719 C 20.863281 28.605469 20.894531 28.703125 20.929688 28.800781 C 21.972656 28.769531 23.019531 28.738281 24.097656 28.703125 C 24.0625 28.578125 24.03125 28.449219 24 28.320312 C 23.9375 28.320312 23.875 28.320312 23.808594 28.320312 C 23.585938 27.878906 23.582031 27.476562 23.578125 26.996094 C 23.574219 26.914062 23.574219 26.835938 23.570312 26.75 C 23.566406 26.496094 23.558594 26.242188 23.554688 25.984375 C 23.550781 25.8125 23.546875 25.640625 23.542969 25.464844 C 23.535156 25.039062 23.527344 24.617188 23.519531 24.191406 C 23.671875 24.195312 23.671875 24.195312 23.828125 24.195312 C 25.511719 24.210938 27.019531 23.984375 28.289062 22.792969 C 28.957031 22.082031 29.21875 21.140625 29.203125 20.179688 C 29.105469 19.179688 28.636719 18.484375 27.886719 17.839844 C 27.515625 17.566406 27.128906 17.40625 26.6875 17.28125 C 26.632812 17.261719 26.574219 17.246094 26.515625 17.230469 C 25.808594 17.046875 25.09375 17.042969 24.367188 17.027344 C 24.238281 17.023438 24.109375 17.019531 23.980469 17.015625 C 22.402344 16.941406 22.402344 16.941406 20.832031 17.089844 Z M 20.832031 17.089844 "/>
<path style=" stroke:none;fill-rule:nonzero;fill:rgb(0%,0%,0%);fill-opacity:1;" d="M 25.617188 17.75 C 26.308594 18.101562 26.714844 18.703125 27.007812 19.410156 C 27.214844 20.558594 27.253906 21.644531 26.707031 22.703125 C 26.167969 23.320312 25.578125 23.675781 24.769531 23.808594 C 24.566406 23.816406 24.367188 23.820312 24.167969 23.820312 C 24.015625 23.820312 24.015625 23.820312 23.859375 23.820312 C 23.617188 23.808594 23.617188 23.808594 23.519531 23.710938 C 23.503906 23.511719 23.496094 23.308594 23.488281 23.109375 C 23.488281 23.042969 23.484375 22.980469 23.484375 22.917969 C 23.476562 22.710938 23.472656 22.503906 23.464844 22.296875 C 23.464844 22.226562 23.460938 22.15625 23.460938 22.082031 C 23.429688 21.046875 23.414062 20.007812 23.410156 18.972656 C 23.410156 18.855469 23.410156 18.734375 23.410156 18.613281 C 23.410156 18.507812 23.410156 18.398438 23.410156 18.285156 C 23.410156 18.191406 23.410156 18.097656 23.410156 17.996094 C 23.425781 17.761719 23.425781 17.761719 23.519531 17.472656 C 24.214844 17.242188 24.96875 17.464844 25.617188 17.75 Z M 24.769531 18.238281 C 24.761719 18.324219 24.761719 18.324219 24.757812 18.40625 C 24.597656 20.597656 24.597656 20.597656 24.097656 21.601562 C 24.089844 21.765625 24.089844 21.929688 24.089844 22.09375 C 24.089844 22.179688 24.089844 22.265625 24.09375 22.355469 C 24.09375 22.421875 24.09375 22.492188 24.097656 22.558594 C 24.585938 22.558594 24.894531 22.207031 25.246094 21.886719 C 25.773438 21.324219 26.390625 20.558594 26.40625 19.757812 C 26.121094 19.003906 25.78125 18.605469 25.054688 18.238281 C 24.960938 18.238281 24.867188 18.238281 24.769531 18.238281 Z M 24.769531 18.238281 "/>
</g>
</svg>
