<?xml version="1.0" encoding="UTF-8"?>
<svg version="1.1" xmlns="http://www.w3.org/2000/svg" width="512" height="512">
<path d="M0 0 C0.71542969 -0.04898438 1.43085938 -0.09796875 2.16796875 -0.1484375 C9.13448758 1.23045988 14.78718646 6.82910419 19.9375 11.4375 C21.25094527 12.59415531 22.56475576 13.750396 23.87890625 14.90625 C24.5352002 15.48632812 25.19149414 16.06640625 25.86767578 16.6640625 C28.84564858 19.28390099 31.85910481 21.86151158 34.875 24.4375 C36.03260932 25.42831855 37.19016143 26.41920394 38.34765625 27.41015625 C39.20447998 28.14322998 39.20447998 28.14322998 40.07861328 28.89111328 C42.99144046 31.38395524 45.90184061 33.87962766 48.8125 36.375 C49.97915518 37.3750134 51.14582184 38.37501341 52.3125 39.375 C101.3125 81.375 101.3125 81.375 103.06274414 82.87524414 C104.22855104 83.87448396 105.39440386 84.87367023 106.56030273 85.87280273 C109.49050398 88.38399461 112.41988291 90.89613393 115.34765625 93.41015625 C120.98672339 98.2507714 126.63524599 103.07920529 132.3125 107.875 C133.37375278 108.7733727 134.43495029 109.67181068 135.49609375 110.5703125 C137.22028387 112.03008178 138.94636332 113.48743537 140.67626953 114.94042969 C142.57945365 116.53939454 144.47751299 118.14428139 146.375 119.75 C146.95894531 120.23791016 147.54289062 120.72582031 148.14453125 121.22851562 C157.52190142 129.19270735 157.52190142 129.19270735 158.05078125 134.984375 C158.07527344 136.02078125 158.09976563 137.0571875 158.125 138.125 C158.16238281 139.15109375 158.19976563 140.1771875 158.23828125 141.234375 C157.36712123 147.66017921 152.88761959 151.5192001 148.25 155.6875 C147.46326904 156.39688721 147.46326904 156.39688721 146.66064453 157.12060547 C142.37461342 160.95344254 137.93923757 164.58957519 133.4609375 168.1953125 C130.83974881 170.35257399 128.32095719 172.58811 125.8125 174.875 C121.51258209 178.79391252 117.05330453 182.46670869 112.53125 186.125 C109.89102271 188.31001569 107.3452028 190.56671391 104.8125 192.875 C100.51258209 196.79391252 96.05330453 200.46670869 91.53125 204.125 C88.89102271 206.31001569 86.3452028 208.56671391 83.8125 210.875 C79.51258209 214.79391252 75.05330453 218.46670869 70.53125 222.125 C67.89102271 224.31001569 65.3452028 226.56671391 62.8125 228.875 C58.51258209 232.79391252 54.05330453 236.46670869 49.53125 240.125 C46.89102271 242.31001569 44.3452028 244.56671391 41.8125 246.875 C37.51661171 250.79023996 33.06260077 254.46060263 28.54296875 258.11328125 C25.83135809 260.35937935 23.22344545 262.68689213 20.625 265.0625 C7.76603384 276.7543307 7.76603384 276.7543307 -1.9140625 276.58203125 C-6.87414943 276.13033948 -10.08900458 273.73966127 -13.5 270.3125 C-16.23156627 266.80152682 -17.49562549 263.79605419 -17.65625 259.33203125 C-16.55925421 252.41181615 -12.64682868 246.36239427 -9.1875 240.375 C-8.69314453 239.51729004 -8.19878906 238.65958008 -7.68945312 237.77587891 C-3.91793538 231.27129283 -0.05929652 224.82021717 3.8125 218.375 C5.75672358 215.12895493 7.69315796 211.87842483 9.625 208.625 C10.05151855 207.91609619 10.47803711 207.20719238 10.91748047 206.47680664 C13.07820839 203.15586011 13.07820839 203.15586011 13.8125 199.375 C12.70299862 199.25292452 12.70299862 199.25292452 11.57108307 199.12838286 C-32.262253 194.30524916 -76.09437771 189.47123793 -119.92495424 184.62308745 C-125.18710264 184.04104469 -130.4492611 183.45909287 -135.71142578 182.87719727 C-136.75903308 182.76135022 -137.80664038 182.64550318 -138.88599336 182.52614561 C-155.85134885 180.65029357 -172.81750823 178.78181077 -189.78397584 176.91604748 C-207.19158292 175.0016072 -224.59830323 173.07925628 -242.00422478 171.14955074 C-252.74564067 169.95895754 -263.48770155 168.77454852 -274.23066801 167.59802721 C-281.59627145 166.7907813 -288.96099992 165.9758568 -296.3250857 165.15488227 C-300.57452552 164.68136943 -304.82426956 164.21125767 -309.07508659 163.75025749 C-312.96859824 163.32793132 -316.86091389 162.89594907 -320.75251102 162.45634089 C-322.15870131 162.29920681 -323.56528971 162.14558619 -324.97229099 161.99588772 C-336.50508039 160.76568024 -344.28581085 159.54133682 -351.9375 150.25 C-355.58130246 144.78429631 -354.66092006 137.64781577 -354.1875 131.375 C-352.99258999 126.23204274 -350.39188553 123.18255175 -346.25 120 C-342.57679994 117.84073505 -339.46926213 116.89307975 -335.25793171 116.31334019 C-333.53472704 116.07366007 -333.53472704 116.07366007 -331.77671015 115.82913792 C-325.85556686 115.07994364 -319.93103432 114.38573051 -313.99809265 113.73655701 C-312.61486495 113.58316209 -311.23166431 113.42952295 -309.84848815 113.27566391 C-306.08544982 112.85777866 -302.32204247 112.44330738 -298.55856073 112.02943718 C-294.48543622 111.5808923 -290.41267038 111.12911211 -286.33985901 110.67773438 C-279.29413451 109.89731413 -272.24819096 109.118898 -265.20209312 108.341856 C-255.00608794 107.21742969 -244.81043791 106.08980961 -234.61487196 104.96140838 C-218.05883044 103.12913346 -201.50252619 101.29924405 -184.94604492 99.47094727 C-168.88961863 97.69786373 -152.83328573 95.92393883 -136.77709961 94.14868164 C-135.78738172 94.03925365 -134.79766383 93.92982567 -133.77795448 93.81708168 C-122.97058938 92.62214547 -112.16324713 91.42700267 -101.35591602 90.23175907 C-98.48868267 89.91465887 -95.62144923 89.59755938 -92.75421568 89.28046089 C-90.86409824 89.07142377 -88.9739812 88.86238313 -87.08386455 88.65333892 C-75.06940954 87.32457219 -63.05485515 85.99670894 -51.04019296 84.66981685 C-44.98047253 84.0005696 -38.9207942 83.33094154 -32.86112919 82.66119271 C-28.07370545 82.13208701 -23.28622978 81.60345467 -18.49871234 81.07519754 C-15.58980201 80.75410531 -12.68094436 80.43253792 -9.77210174 80.11083294 C-7.8152319 79.89455434 -5.85829892 79.67884724 -3.90136355 79.46316236 C2.00921826 78.80899652 7.9143783 78.13364436 13.8125 77.375 C12.37595777 73.5230562 10.58958522 70.06080831 8.5390625 66.5 C7.88429932 65.35958252 7.22953613 64.21916504 6.55493164 63.04418945 C6.2091507 62.44530914 5.86336975 61.84642883 5.5071106 61.22940063 C4.4266592 59.35620513 3.35215782 57.47970731 2.27905273 55.60229492 C-1.06121779 49.76535013 -4.42819583 43.94841198 -7.87890625 38.17578125 C-8.43078613 37.24185547 -8.98266602 36.30792969 -9.55126953 35.34570312 C-10.56889492 33.62682239 -11.59903798 31.91526455 -12.64404297 30.21289062 C-15.69140461 25.03678606 -17.3601665 20.45019317 -17.1875 14.375 C-15.54547694 8.32003995 -12.27121905 4.81806426 -7.1875 1.375 C-4.56291898 0.50013966 -2.71999275 0.12516781 0 0 Z " fill="#9A8039" transform="translate(354.1875,117.625)"/>
</svg>
