<?xml version="1.0" encoding="UTF-8"?>
<svg version="1.1" xmlns="http://www.w3.org/2000/svg" width="360" height="360">
<path d="M0 0 C118.8 0 237.6 0 360 0 C360 118.8 360 237.6 360 360 C241.2 360 122.4 360 0 360 C0 241.2 0 122.4 0 0 Z " fill="#0381CD" transform="translate(0,0)"/>
<path d="M0 0 C118.8 0 237.6 0 360 0 C360 118.8 360 237.6 360 360 C241.2 360 122.4 360 0 360 C0 241.2 0 122.4 0 0 Z M163.4375 28.125 C162.56931641 28.599375 161.70113281 29.07375 160.80664062 29.5625 C156.48931046 31.94137142 152.25171609 34.43977437 148.03515625 36.9921875 C143.70072354 39.61196025 139.29051725 42.05702227 134.83496094 44.46386719 C129.90451025 47.13544794 125.01688381 49.88362455 120.125 52.625 C119.04653809 53.22892578 117.96807617 53.83285156 116.85693359 54.45507812 C108.93431383 58.89853834 101.03679055 63.38438095 93.16455078 67.91650391 C88.09088498 70.83138488 82.97590911 73.65860588 77.83398438 76.45117188 C73.00917785 79.08802341 68.22353254 81.79359342 63.4375 84.5 C62.47392578 85.04269531 61.51035156 85.58539063 60.51757812 86.14453125 C58.60230551 87.22679588 56.69123359 88.31653187 54.78466797 89.4140625 C52.95083282 90.45847712 51.10082687 91.47507081 49.23486328 92.4609375 C48.36458496 92.93789062 47.49430664 93.41484375 46.59765625 93.90625 C45.44728882 94.51436523 45.44728882 94.51436523 44.27368164 95.13476562 C39.95949011 98.67394992 37.37328376 102.49417078 36.53910923 108.09392929 C36.36381832 111.89773867 36.34619788 115.68475219 36.38476562 119.49072266 C36.38125998 120.95013574 36.37559642 122.40954499 36.36795044 123.86894226 C36.35375864 127.81321682 36.37070664 131.75678954 36.39423561 135.70099688 C36.41440943 139.83682463 36.4084618 143.97262511 36.40612793 148.10848999 C36.40618142 155.05030837 36.4258917 161.9918538 36.45800781 168.93359375 C36.49492614 176.95214921 36.50367851 184.97034772 36.4967103 192.98897707 C36.49040008 200.71507549 36.50116731 208.44105192 36.52067566 216.1671257 C36.528837 219.45008461 36.53156156 222.73298105 36.52998352 226.01594925 C36.52910303 229.88207051 36.54336475 233.74785381 36.56921005 237.61388588 C36.57635655 239.03040618 36.57846278 240.44696247 36.57509232 241.86349678 C36.57136248 243.8009175 36.58800562 245.73834519 36.60559082 247.6756897 C36.60931953 248.75854563 36.61304825 249.84140156 36.61688995 250.9570713 C37.37101019 256.94682312 40.21786025 260.80522736 44.7734375 264.4609375 C48.31326642 266.90776661 52.0803207 268.84420881 55.89453125 270.828125 C61.06306864 273.52929642 66.11794697 276.43119233 71.1875 279.3125 C78.37571667 283.39146037 85.57771451 287.44172212 92.8125 291.4375 C98.12669944 294.3746912 103.37866129 297.38000601 108.56005859 300.54760742 C111.02036982 302.01212528 113.5121327 303.38933649 116.03125 304.75 C122.07181602 308.03030071 128.06914964 311.38439862 134.0625 314.75 C136.26292773 315.98323905 138.46344921 317.21631084 140.6640625 318.44921875 C143.69002654 320.14490391 146.71594466 321.84066792 149.74121094 323.53759766 C154.21887667 326.04754256 158.70440843 328.54152251 163.20654297 331.00732422 C164.80628555 331.89277934 166.39065251 332.80588405 167.97265625 333.72265625 C173.67535169 336.88690302 178.49273771 338.33657411 185 337 C189.25369193 335.41794671 193.0799039 333.27473466 197 331 C197.66515625 330.61424805 198.3303125 330.22849609 199.015625 329.83105469 C201.88524005 328.16191272 204.75058329 326.486741 207.59790039 324.77978516 C213.31177351 321.35517026 219.13668595 318.16078949 225 315 C226.43508911 314.2251123 226.43508911 314.2251123 227.89916992 313.43457031 C229.86212254 312.37506937 231.82525879 311.31590857 233.78857422 310.25708008 C242.45699759 305.57853896 251.09118966 300.86452041 259.62109375 295.9375 C263.53918396 293.69082631 267.48568983 291.49912224 271.4375 289.3125 C280.56792481 284.25503861 289.66485336 279.13949231 298.73828125 273.98046875 C301.78468874 272.24838856 304.83752257 270.53401777 307.91796875 268.86328125 C314.57186166 265.18504231 320.47359391 261.57921826 323 254 C323.09758463 252.0221721 323.13499198 250.04118518 323.14044189 248.06095886 C323.14615204 246.82021103 323.15186218 245.5794632 323.15774536 244.30111694 C323.15899071 242.92364512 323.1601158 241.54617318 323.16113281 240.16870117 C323.1657615 238.71988295 323.17078623 237.27106595 323.17617798 235.82225037 C323.18929936 231.88413468 323.19574645 227.94603604 323.20018864 224.00790191 C323.20311986 221.5472864 323.20722477 219.08667555 323.21169281 216.62606239 C323.22536721 208.92670373 323.23503408 201.22735572 323.2388947 193.52798575 C323.24337511 184.64145921 323.26092237 175.75508651 323.2898953 166.86860675 C323.31151514 159.99886707 323.32159915 153.12917066 323.32293582 146.25939733 C323.32398366 142.15676511 323.32988682 138.05427752 323.34775543 133.95168114 C323.36424136 130.09143709 323.36638919 126.2314463 323.35761642 122.37117958 C323.35684632 120.95625251 323.36118535 119.54131179 323.37107468 118.12641907 C323.38380635 116.19098491 323.37612123 114.25544887 323.36749268 112.31999207 C323.36969252 110.69702855 323.36969252 110.69702855 323.3719368 109.04127789 C322.62638683 102.94501464 319.58073284 98.89849604 315 95 C310.12692719 91.76597157 304.9952158 88.98198263 299.85546875 86.19921875 C294.18076389 83.1107268 288.55553704 79.94010757 282.9375 76.75 C263.86599525 65.9444205 263.86599525 65.9444205 244.5625 55.5625 C235.98590052 51.06899696 227.64017614 46.20372184 219.27832031 41.32568359 C213.87757078 38.18315574 208.45322308 35.08811836 202.97363281 32.08496094 C201.62286906 31.34240847 200.27602219 30.59269836 198.93261719 29.83691406 C196.86325074 28.67934112 194.77854677 27.55533948 192.6875 26.4375 C192.07817627 26.09050049 191.46885254 25.74350098 190.84106445 25.38598633 C181.06851504 20.29820904 172.48638912 22.91564698 163.4375 28.125 Z " fill="#F4F5F5" transform="translate(0,0)"/>
<path d="M0 0 C7.3568978 6.21177466 13.65504429 13.06297876 19.46923828 20.75390625 C19.95650391 21.38683594 20.44376953 22.01976562 20.94580078 22.671875 C22.09423828 24.25390625 22.09423828 24.25390625 23.46923828 26.75390625 C22.19126968 30.58781205 20.9947316 30.8602744 17.50048828 32.7578125 C16.46174561 33.32943115 15.42300293 33.9010498 14.3527832 34.48999023 C13.23621338 35.09270752 12.11964355 35.6954248 10.96923828 36.31640625 C8.68304403 37.5671149 6.39789144 38.81972945 4.11376953 40.07421875 C2.98535645 40.69329102 1.85694336 41.31236328 0.69433594 41.95019531 C-2.18354958 43.55971978 -5.01524724 45.21923177 -7.83154297 46.93359375 C-8.60369141 47.40337646 -9.37583984 47.87315918 -10.17138672 48.35717773 C-11.58756699 49.22716708 -12.99807063 50.10648614 -14.40185547 50.99633789 C-19.02734954 53.82243387 -19.02734954 53.82243387 -21.63452148 53.4675293 C-24.28273834 52.47091054 -25.08570211 50.95638155 -26.65576172 48.62890625 C-30.51554584 43.40488808 -35.05482807 40.15215446 -40.53076172 36.75390625 C-41.25005859 36.25632813 -41.96935547 35.75875 -42.71044922 35.24609375 C-50.38237455 31.18698644 -57.958721 30.27085532 -66.53076172 30.37890625 C-67.45115234 30.36730469 -68.37154297 30.35570312 -69.31982422 30.34375 C-80.87121954 30.39255871 -89.22281329 34.11356708 -98.53076172 40.75390625 C-99.19205078 41.21667969 -99.85333984 41.67945313 -100.53466797 42.15625 C-109.03728763 48.71867457 -115.28911499 60.29640172 -117.53076172 70.75390625 C-117.77705419 74.29230806 -117.76192436 77.83277435 -117.78076172 81.37890625 C-117.80138672 82.32636719 -117.82201172 83.27382812 -117.84326172 84.25 C-117.92138022 98.52615666 -111.96551069 109.57981237 -102.39794922 119.9765625 C-90.7847147 131.03100121 -76.79302681 133.15559488 -61.47607422 132.97265625 C-56.0907001 132.81135714 -51.46082745 131.96623749 -46.53076172 129.75390625 C-45.515625 129.33625 -45.515625 129.33625 -44.47998047 128.91015625 C-34.63057354 124.47314186 -27.86318834 117.32942677 -21.53076172 108.75390625 C-15.361631 110.40523922 -10.14192301 113.64889221 -4.65576172 116.81640625 C-2.60387185 117.99122338 -0.55178734 119.16570061 1.50048828 120.33984375 C2.50853516 120.91831055 3.51658203 121.49677734 4.55517578 122.09277344 C7.19302521 123.59645369 9.84159149 125.07691846 12.50048828 126.54296875 C13.24186035 126.95281006 13.98323242 127.36265137 14.74707031 127.78491211 C16.11568609 128.53964237 17.48637147 129.29063522 18.859375 130.03735352 C23.35809223 132.53161414 23.35809223 132.53161414 24.46923828 134.75390625 C8.38398366 161.01071894 -14.9595422 176.71059789 -44.31201172 184.9921875 C-60.01190802 188.70757558 -78.0373565 188.11252936 -93.53076172 183.75390625 C-95.35220703 183.26083984 -95.35220703 183.26083984 -97.21044922 182.7578125 C-110.61627899 178.73048942 -122.94019118 171.92036598 -133.53076172 162.75390625 C-134.31451172 162.11324219 -135.09826172 161.47257813 -135.90576172 160.8125 C-155.82182375 143.91496612 -168.13804208 119.68181228 -171.21826172 93.81640625 C-173.50029067 64.34019891 -166.17205033 36.40801541 -146.96826172 13.6640625 C-109.74776601 -28.95778908 -44.31412804 -36.07325511 0 0 Z " fill="#FDFDFE" transform="translate(246.53076171875,98.24609375)"/>
<path d="M0 0 C2.73352827 1.92307251 4.11280125 4.3721567 5.91113281 7.17553711 C20.97722804 29.76049342 43.72456294 44.5125033 70.06738281 50.75756836 C96.45485869 55.90905593 124.40794087 51.34159457 147.28613281 37.04272461 C151.30897472 34.3076827 155.13253589 31.43988531 158.84863281 28.30053711 C159.67234375 27.61088867 160.49605469 26.92124023 161.34472656 26.21069336 C170.05702223 18.6653414 176.67344419 9.98435562 182.84863281 0.30053711 C194.81349478 6.02859701 206.40355463 12.39793609 217.99389648 18.83959961 C218.61364853 19.18391022 219.23340057 19.52822083 219.87193298 19.88296509 C221.57744599 20.83125575 223.28191961 21.78141507 224.98632812 22.73168945 C227.2533947 23.97428326 229.52519857 25.1683373 231.84863281 26.30053711 C229.13090698 33.21838468 221.83841556 36.1073086 215.66113281 39.42553711 C213.85888162 40.40569727 212.05680171 41.38617245 210.25488281 42.36694336 C209.34867187 42.8582373 208.44246094 43.34953125 207.50878906 43.85571289 C203.54926049 46.00627182 199.60220313 48.17886086 195.66113281 50.36303711 C194.92991211 50.76828613 194.19869141 51.17353516 193.4453125 51.59106445 C187.55402382 54.87313033 181.73213389 58.26666042 175.94360352 61.7265625 C168.46589052 66.17922214 160.78758754 70.2610429 153.12207031 74.37866211 C142.45276487 80.11100928 131.88802098 85.95584728 121.48144531 92.15209961 C117.48267387 94.52969117 113.43567808 96.80470571 109.32519531 98.98413086 C107.63602138 99.88200407 105.96435595 100.81341769 104.30957031 101.77319336 C98.42297318 105.04453759 93.56671807 106.76014988 86.84863281 105.30053711 C81.925138 103.41898849 77.42497914 100.8862389 72.84863281 98.30053711 C71.12613083 97.34452993 69.40346371 96.38882026 67.68066406 95.43334961 C56.42834183 89.15343925 45.28642868 82.68184618 34.18115234 76.14599609 C25.90614284 71.28699199 17.51443382 66.67082838 9.00610352 62.23388672 C-1.64793921 56.67163915 -12.09099564 50.74406877 -22.53125 44.79272461 C-24.85775784 43.46775108 -27.18724727 42.14829012 -29.51855469 40.83178711 C-30.75040208 40.13400557 -31.98217978 39.436101 -33.21386719 38.73803711 C-34.74720703 37.86985352 -34.74720703 37.86985352 -36.31152344 36.98413086 C-44.93992514 31.86880606 -44.93992514 31.86880606 -48.15136719 28.30053711 C-46.92911265 24.63377351 -46.10127462 24.42307204 -42.79589844 22.62084961 C-41.87333252 22.10981689 -40.9507666 21.59878418 -40.00024414 21.07226562 C-38.99823975 20.52884521 -37.99623535 19.9854248 -36.96386719 19.42553711 C-30.5288795 15.88616706 -24.12851363 12.32961595 -17.87011719 8.48413086 C-16.87778076 7.87746582 -15.88544434 7.27080078 -14.86303711 6.64575195 C-12.95452763 5.47219943 -11.05336987 4.28659232 -9.16040039 3.08813477 C-8.29761475 2.5613916 -7.4348291 2.03464844 -6.54589844 1.49194336 C-5.79155518 1.01958252 -5.03721191 0.54722168 -4.26000977 0.06054688 C-2.15136719 -0.69946289 -2.15136719 -0.69946289 0 0 Z " fill="#00549D" transform="translate(88.1513671875,231.699462890625)"/>
<path d="M0 0 C0.94746094 -0.020625 1.89492187 -0.04125 2.87109375 -0.0625 C17.32116424 -0.14157015 28.17756951 5.93999664 38.71484375 15.546875 C44.375 21.35352941 44.375 21.35352941 44.375 25.25 C45.035 25.58 45.695 25.91 46.375 26.25 C45.13363281 26.60964844 43.89226562 26.96929687 42.61328125 27.33984375 C36.49173706 29.38115759 31.11550359 32.57057305 25.5625 35.8125 C23.53555235 36.98115602 21.50822408 38.1491522 19.48046875 39.31640625 C18.59512451 39.83146729 17.70978027 40.34652832 16.79760742 40.87719727 C15.2804222 41.73693046 13.73804092 42.55507321 12.1652832 43.30834961 C10.20500166 44.20246435 10.20500166 44.20246435 8.625 46.25 C5.430358 49.08968178 2.54020577 49.41695885 -1.625 50.25 C-0.38251617 53.97745148 0.46554153 54.1189235 3.875 55.875 C4.87402344 56.39835937 5.87304688 56.92171875 6.90234375 57.4609375 C8.04832031 58.05132812 9.19429687 58.64171875 10.375 59.25 C13.06588483 60.66027048 15.75174699 62.07998577 18.4375 63.5 C19.14575928 63.87326416 19.85401855 64.24652832 20.58374023 64.63110352 C28.92039271 69.03885033 37.14834242 73.64114739 45.375 78.25 C42.21930092 87.51883341 33.91401281 94.820821 25.375 99.25 C12.25719603 104.80052658 -3.88904969 107.34494793 -17.60546875 102.15625 C-18.27191406 101.8571875 -18.93835938 101.558125 -19.625 101.25 C-20.30175781 100.9715625 -20.97851562 100.693125 -21.67578125 100.40625 C-33.64161221 95.01581741 -42.96526611 84.98870733 -48.625 73.25 C-51.2846923 66.1960684 -52.09458753 59.75394391 -52 52.25 C-52.01740234 50.86941406 -52.01740234 50.86941406 -52.03515625 49.4609375 C-51.97594331 35.44720805 -45.986566 24.32835024 -36.6328125 14.09375 C-26.01798142 4.34627866 -14.06694245 0.07472479 0 0 Z " fill="#0180CC" transform="translate(179.625,127.75)"/>
<path d="M0 0 C0.97582031 0.51175781 1.95164063 1.02351562 2.95703125 1.55078125 C3.55136963 1.85765869 4.14570801 2.16453613 4.75805664 2.48071289 C6.76815431 3.5445239 8.73753551 4.66368238 10.70703125 5.80078125 C11.76809082 6.40466675 11.76809082 6.40466675 12.85058594 7.02075195 C16.67149866 9.20394363 20.45337339 11.44099389 24.20703125 13.73828125 C28.73516172 16.49653331 33.42596055 18.84480172 38.1953125 21.15625 C40.86708538 22.50536304 43.41124333 23.97879199 45.95703125 25.55078125 C42.80133217 34.81961466 34.49604406 42.12160225 25.95703125 46.55078125 C12.83922728 52.10130783 -3.30701844 54.64572918 -17.0234375 49.45703125 C-17.68988281 49.15796875 -18.35632813 48.85890625 -19.04296875 48.55078125 C-19.71972656 48.27234375 -20.39648438 47.99390625 -21.09375 47.70703125 C-30.67003257 43.39305541 -38.30255188 36.29320184 -44.04296875 27.55078125 C-44.41061577 26.22649859 -44.75018274 24.89360113 -45.04296875 23.55078125 C-44.1471106 23.04647583 -44.1471106 23.04647583 -43.2331543 22.53198242 C-41.43098878 21.51691817 -39.62927353 20.5010543 -37.82788086 19.48461914 C-35.75061424 18.31344486 -33.67198236 17.144689 -31.59204102 15.97827148 C-26.50939961 13.11853196 -21.46302888 10.22496042 -16.49609375 7.16796875 C-15.64700439 6.65210205 -14.79791504 6.13623535 -13.9230957 5.60473633 C-12.32533468 4.62915191 -10.73734196 3.63733908 -9.16088867 2.62768555 C-3.87740648 -0.57240275 -3.87740648 -0.57240275 0 0 Z " fill="#00549D" transform="translate(179.04296875,180.44921875)"/>
<path d="M0 0 C4.95 0 9.9 0 15 0 C15 4.95 15 9.9 15 15 C19.95 15 24.9 15 30 15 C30 19.62 30 24.24 30 29 C25.05 29 20.1 29 15 29 C15 34.28 15 39.56 15 45 C10.05 45 5.1 45 0 45 C0 39.72 0 34.44 0 29 C-4.95 29 -9.9 29 -15 29 C-15 24.38 -15 19.76 -15 15 C-10.05 15 -5.1 15 0 15 C0 10.05 0 5.1 0 0 Z " fill="#FDFEFE" transform="translate(285,158)"/>
<path d="M0 0 C4.62 0 9.24 0 14 0 C14.495 6.93 14.495 6.93 15 14 C21.93 14.495 21.93 14.495 29 15 C29 19.62 29 24.24 29 29 C24.38 29.33 19.76 29.66 15 30 C14.67 34.62 14.34 39.24 14 44 C9.38 44 4.76 44 0 44 C0 39.05 0 34.1 0 29 C-4.95 29 -9.9 29 -15 29 C-15 24.38 -15 19.76 -15 15 C-10.05 15 -5.1 15 0 15 C0 10.05 0 5.1 0 0 Z " fill="#FEFEFE" transform="translate(233,158)"/>
<path d="M0 0 C10.42166131 3.55121678 19.55694335 8.42518342 29 14 C30.43869649 14.83742103 31.87749872 15.6746604 33.31640625 16.51171875 C34.69079919 17.31913058 36.0645219 18.12768461 37.4375 18.9375 C38.08251465 19.31487305 38.7275293 19.69224609 39.39208984 20.08105469 C43.88338735 22.7667747 43.88338735 22.7667747 45 25 C45.13996069 29.66908861 45.04247285 34.32798622 45 39 C40.05 39 35.1 39 30 39 C30 34.05 30 29.1 30 24 C25.05 24 20.1 24 15 24 C15 19.05 15 14.1 15 9 C10.05 9 5.1 9 0 9 C0 6.03 0 3.06 0 0 Z " fill="#ECEDEF" transform="translate(90,291)"/>
<path d="M0 0 C4.95 0 9.9 0 15 0 C15.495 7.425 15.495 7.425 16 15 C14.65550781 15.72703125 13.31101563 16.4540625 11.92578125 17.203125 C10.05439796 18.2182164 8.18332834 19.23388618 6.3125 20.25 C5.33112061 20.78270508 4.34974121 21.31541016 3.33862305 21.86425781 C-4.64914466 26.21948243 -12.54793104 30.7173611 -20.38354492 35.34082031 C-21.62261597 36.06156738 -21.62261597 36.06156738 -22.88671875 36.796875 C-23.61076904 37.22323242 -24.33481934 37.64958984 -25.08081055 38.08886719 C-27 39 -27 39 -30 39 C-30 36.03 -30 33.06 -30 30 C-25.05 30 -20.1 30 -15 30 C-15 25.05 -15 20.1 -15 15 C-10.05 15 -5.1 15 0 15 C0 10.05 0 5.1 0 0 Z " fill="#FCFDFE" transform="translate(120,30)"/>
<path d="M0 0 C6.7532097 2.2510699 6.7532097 2.2510699 10.171875 4.171875 C10.91453613 4.58646973 11.65719727 5.00106445 12.42236328 5.42822266 C13.1904834 5.86440918 13.95860352 6.3005957 14.75 6.75 C15.5426123 7.19520996 16.33522461 7.64041992 17.15185547 8.09912109 C22.82780362 11.29989611 28.45667602 14.57372437 34 18 C33.01 18.33 32.02 18.66 31 19 C31 22.63 31 26.26 31 30 C26.05 30 21.1 30 16 30 C16 25.05 16 20.1 16 15 C11.05 15 6.1 15 1 15 C0.67 10.05 0.34 5.1 0 0 Z " fill="#FDFDFE" transform="translate(134,315)"/>
<path d="M0 0 C2.31 0 4.62 0 7 0 C7 0.66 7 1.32 7 2 C7.66 2 8.32 2 9 2 C9.721875 2.99 10.44375 3.98 11.1875 5 C15.96600812 10.8858702 23.32693051 13.73138454 30 17 C30 21.29 30 25.58 30 30 C25.05 30 20.1 30 15 30 C15 25.05 15 20.1 15 15 C10.05 15 5.1 15 0 15 C0 10.05 0 5.1 0 0 Z " fill="#EDEDEF" transform="translate(30,255)"/>
<path d="M0 0 C4.95 0 9.9 0 15 0 C15 3.3 15 6.6 15 10 C15.66 10.33 16.32 10.66 17 11 C16.45061768 11.29132813 15.90123535 11.58265625 15.33520508 11.8828125 C12.81577173 13.23430189 10.31457192 14.6166517 7.8125 16 C6.94818359 16.45761719 6.08386719 16.91523437 5.19335938 17.38671875 C-0.04683667 20.31801615 -3.22602089 22.92294271 -6.0559082 28.265625 C-7 30 -7 30 -9 32 C-9 31.34 -9 30.68 -9 30 C-10.98 30 -12.96 30 -15 30 C-15 25.05 -15 20.1 -15 15 C-10.05 15 -5.1 15 0 15 C0 10.05 0 5.1 0 0 Z " fill="#FDFDFE" transform="translate(45,75)"/>
<path d="M0 0 C4.95 0 9.9 0 15 0 C15 4.95 15 9.9 15 15 C19.95 15 24.9 15 30 15 C30 19.95 30 24.9 30 30 C27.69 30 25.38 30 23 30 C22.731875 29.195625 22.46375 28.39125 22.1875 27.5625 C21.795625 26.716875 21.40375 25.87125 21 25 C20.01 24.67 19.02 24.34 18 24 C18 23.34 18 22.68 18 22 C17.43023437 21.72027344 16.86046875 21.44054687 16.2734375 21.15234375 C14.02174299 20.01102093 11.82446528 18.80114624 9.625 17.5625 C6.12833652 15.60899214 2.60175032 13.75469887 -1 12 C-0.67 8.04 -0.34 4.08 0 0 Z " fill="#EDEDEF" transform="translate(300,75)"/>
<path d="M0 0 C4.42476795 1.34430678 8.27557736 3.09404722 12.31640625 5.3359375 C12.89535141 5.65656158 13.47429657 5.97718567 14.07078552 6.30752563 C15.28644959 6.98247667 16.5007135 7.6599552 17.71362305 8.33984375 C19.55704561 9.37194617 21.40602832 10.39349993 23.25585938 11.4140625 C24.44305593 12.07489676 25.62991644 12.73633515 26.81640625 13.3984375 C27.88318604 13.99317871 28.94996582 14.58791992 30.04907227 15.20068359 C32.90750134 16.94359931 35.43890203 18.84923389 38 21 C33.125 20.125 33.125 20.125 32 19 C31.67 21.64 31.34 24.28 31 27 C26.05 27 21.1 27 16 27 C16 22.05 16 17.1 16 12 C11.05 12 6.1 12 1 12 C0.67 8.04 0.34 4.08 0 0 Z " fill="#FCFDFD" transform="translate(59,273)"/>
<path d="M0 0 C4.95 0 9.9 0 15 0 C15 4.95 15 9.9 15 15 C19.95 15 24.9 15 30 15 C30 18.63 30 22.26 30 26 C26.29268742 25.07317185 23.75869059 23.93305923 20.4296875 22.12890625 C19.36878906 21.55462891 18.30789063 20.98035156 17.21484375 20.38867188 C16.11269531 19.78603516 15.01054687 19.18339844 13.875 18.5625 C12.76511719 17.96373047 11.65523438 17.36496094 10.51171875 16.74804688 C2.26078521 12.26078521 2.26078521 12.26078521 0 10 C-0.27450545 6.65103346 -0.08628804 3.36523337 0 0 Z " fill="#FCFDFD" transform="translate(270,60)"/>
<path d="M0 0 C4.95 0 9.9 0 15 0 C15.33 3.3 15.66 6.6 16 10 C14.948125 10.56267578 14.948125 10.56267578 13.875 11.13671875 C9.44686367 13.52526511 5.05027383 15.90977964 0.8125 18.625 C-9.2348301 25 -9.2348301 25 -15 25 C-15 21.7 -15 18.4 -15 15 C-10.05 15 -5.1 15 0 15 C0 10.05 0 5.1 0 0 Z " fill="#EDEDEF" transform="translate(75,60)"/>
<path d="M0 0 C4.95 0 9.9 0 15 0 C15 4.95 15 9.9 15 15 C19.95 15 24.9 15 30 15 C30 18.3 30 21.6 30 25 C27.43623236 23.73167312 24.87397788 22.46043635 22.3125 21.1875 C21.59126953 20.83107422 20.87003906 20.47464844 20.12695312 20.10742188 C16.31499498 18.2101459 12.64027226 16.21367908 9 14 C7.23802793 13.08686119 5.46724016 12.19050514 3.6875 11.3125 C2.80449219 10.87550781 1.92148438 10.43851563 1.01171875 9.98828125 C0.34785156 9.66214844 -0.31601563 9.33601563 -1 9 C-0.67 8.34 -0.34 7.68 0 7 C0 4.69 0 2.38 0 0 Z " fill="#ECEDF0" transform="translate(240,45)"/>
<path d="M0 0 C4.95 0.33 9.9 0.66 15 1 C15 5.95 15 10.9 15 16 C10.05 16 5.1 16 0 16 C0 10.72 0 5.44 0 0 Z " fill="#FEFEFE" transform="translate(225,314)"/>
<path d="M0 0 C4.95 0 9.9 0 15 0 C15 4.95 15 9.9 15 15 C10.05 15 5.1 15 0 15 C0 10.05 0 5.1 0 0 Z " fill="#FFFFFF" transform="translate(345,345)"/>
<path d="M0 0 C4.95 0 9.9 0 15 0 C15 4.95 15 9.9 15 15 C10.05 15 5.1 15 0 15 C0 10.05 0 5.1 0 0 Z " fill="#FFFFFF" transform="translate(315,345)"/>
<path d="M0 0 C4.95 0 9.9 0 15 0 C15 4.95 15 9.9 15 15 C10.05 15 5.1 15 0 15 C0 10.05 0 5.1 0 0 Z " fill="#EEEEEF" transform="translate(300,345)"/>
<path d="M0 0 C4.95 0 9.9 0 15 0 C15 4.95 15 9.9 15 15 C10.05 15 5.1 15 0 15 C0 10.05 0 5.1 0 0 Z " fill="#FFFFFF" transform="translate(285,345)"/>
<path d="M0 0 C4.95 0 9.9 0 15 0 C15 4.95 15 9.9 15 15 C10.05 15 5.1 15 0 15 C0 10.05 0 5.1 0 0 Z " fill="#EEEEEF" transform="translate(270,345)"/>
<path d="M0 0 C4.95 0 9.9 0 15 0 C15 4.95 15 9.9 15 15 C10.05 15 5.1 15 0 15 C0 10.05 0 5.1 0 0 Z " fill="#FFFFFF" transform="translate(255,345)"/>
<path d="M0 0 C4.95 0 9.9 0 15 0 C15 4.95 15 9.9 15 15 C10.05 15 5.1 15 0 15 C0 10.05 0 5.1 0 0 Z " fill="#EEEEEF" transform="translate(240,345)"/>
<path d="M0 0 C4.95 0 9.9 0 15 0 C15 4.95 15 9.9 15 15 C10.05 15 5.1 15 0 15 C0 10.05 0 5.1 0 0 Z " fill="#FFFFFF" transform="translate(225,345)"/>
<path d="M0 0 C4.95 0 9.9 0 15 0 C15 4.95 15 9.9 15 15 C10.05 15 5.1 15 0 15 C0 10.05 0 5.1 0 0 Z " fill="#EEEEEF" transform="translate(210,345)"/>
<path d="M0 0 C4.95 0 9.9 0 15 0 C15 4.95 15 9.9 15 15 C10.05 15 5.1 15 0 15 C0 10.05 0 5.1 0 0 Z " fill="#FFFFFF" transform="translate(195,345)"/>
<path d="M0 0 C4.95 0 9.9 0 15 0 C15 4.95 15 9.9 15 15 C10.05 15 5.1 15 0 15 C0 10.05 0 5.1 0 0 Z " fill="#FFFFFF" transform="translate(165,345)"/>
<path d="M0 0 C4.95 0 9.9 0 15 0 C15 4.95 15 9.9 15 15 C10.05 15 5.1 15 0 15 C0 10.05 0 5.1 0 0 Z " fill="#EEEEEF" transform="translate(150,345)"/>
<path d="M0 0 C4.95 0 9.9 0 15 0 C15 4.95 15 9.9 15 15 C10.05 15 5.1 15 0 15 C0 10.05 0 5.1 0 0 Z " fill="#FFFFFF" transform="translate(135,345)"/>
<path d="M0 0 C4.95 0 9.9 0 15 0 C15 4.95 15 9.9 15 15 C10.05 15 5.1 15 0 15 C0 10.05 0 5.1 0 0 Z " fill="#EEEEEF" transform="translate(120,345)"/>
<path d="M0 0 C4.95 0 9.9 0 15 0 C15 4.95 15 9.9 15 15 C10.05 15 5.1 15 0 15 C0 10.05 0 5.1 0 0 Z " fill="#FFFFFF" transform="translate(105,345)"/>
<path d="M0 0 C4.95 0 9.9 0 15 0 C15 4.95 15 9.9 15 15 C10.05 15 5.1 15 0 15 C0 10.05 0 5.1 0 0 Z " fill="#EEEEEF" transform="translate(90,345)"/>
<path d="M0 0 C4.95 0 9.9 0 15 0 C15 4.95 15 9.9 15 15 C10.05 15 5.1 15 0 15 C0 10.05 0 5.1 0 0 Z " fill="#FFFFFF" transform="translate(75,345)"/>
<path d="M0 0 C4.95 0 9.9 0 15 0 C15 4.95 15 9.9 15 15 C10.05 15 5.1 15 0 15 C0 10.05 0 5.1 0 0 Z " fill="#EEEEEF" transform="translate(60,345)"/>
<path d="M0 0 C4.95 0 9.9 0 15 0 C15 4.95 15 9.9 15 15 C10.05 15 5.1 15 0 15 C0 10.05 0 5.1 0 0 Z " fill="#FFFFFF" transform="translate(45,345)"/>
<path d="M0 0 C4.95 0 9.9 0 15 0 C15 4.95 15 9.9 15 15 C10.05 15 5.1 15 0 15 C0 10.05 0 5.1 0 0 Z " fill="#EEEEEF" transform="translate(30,345)"/>
<path d="M0 0 C4.95 0 9.9 0 15 0 C15 4.95 15 9.9 15 15 C10.05 15 5.1 15 0 15 C0 10.05 0 5.1 0 0 Z " fill="#FFFFFF" transform="translate(15,345)"/>
<path d="M0 0 C4.95 0 9.9 0 15 0 C15 4.95 15 9.9 15 15 C10.05 15 5.1 15 0 15 C0 10.05 0 5.1 0 0 Z " fill="#EEEEEF" transform="translate(0,345)"/>
<path d="M0 0 C4.95 0 9.9 0 15 0 C15 4.95 15 9.9 15 15 C10.05 15 5.1 15 0 15 C0 10.05 0 5.1 0 0 Z " fill="#FFFFFF" transform="translate(330,330)"/>
<path d="M0 0 C4.95 0 9.9 0 15 0 C15 4.95 15 9.9 15 15 C10.05 15 5.1 15 0 15 C0 10.05 0 5.1 0 0 Z " fill="#FFFFFF" transform="translate(300,330)"/>
<path d="M0 0 C4.95 0 9.9 0 15 0 C15 4.95 15 9.9 15 15 C10.05 15 5.1 15 0 15 C0 10.05 0 5.1 0 0 Z " fill="#EEEEEF" transform="translate(285,330)"/>
<path d="M0 0 C4.95 0 9.9 0 15 0 C15 4.95 15 9.9 15 15 C10.05 15 5.1 15 0 15 C0 10.05 0 5.1 0 0 Z " fill="#FFFFFF" transform="translate(270,330)"/>
<path d="M0 0 C4.95 0 9.9 0 15 0 C15 4.95 15 9.9 15 15 C10.05 15 5.1 15 0 15 C0 10.05 0 5.1 0 0 Z " fill="#EEEEEF" transform="translate(255,330)"/>
<path d="M0 0 C4.95 0 9.9 0 15 0 C15 4.95 15 9.9 15 15 C10.05 15 5.1 15 0 15 C0 10.05 0 5.1 0 0 Z " fill="#FFFFFF" transform="translate(240,330)"/>
<path d="M0 0 C4.95 0 9.9 0 15 0 C15 4.95 15 9.9 15 15 C10.05 15 5.1 15 0 15 C0 10.05 0 5.1 0 0 Z " fill="#FFFFFF" transform="translate(210,330)"/>
<path d="M0 0 C4.95 0 9.9 0 15 0 C15 4.95 15 9.9 15 15 C10.05 15 5.1 15 0 15 C0 10.05 0 5.1 0 0 Z " fill="#EEEEEF" transform="translate(135,330)"/>
<path d="M0 0 C4.95 0 9.9 0 15 0 C15 4.95 15 9.9 15 15 C10.05 15 5.1 15 0 15 C0 10.05 0 5.1 0 0 Z " fill="#FFFFFF" transform="translate(120,330)"/>
<path d="M0 0 C4.95 0 9.9 0 15 0 C15 4.95 15 9.9 15 15 C10.05 15 5.1 15 0 15 C0 10.05 0 5.1 0 0 Z " fill="#EEEEEF" transform="translate(105,330)"/>
<path d="M0 0 C4.95 0 9.9 0 15 0 C15 4.95 15 9.9 15 15 C10.05 15 5.1 15 0 15 C0 10.05 0 5.1 0 0 Z " fill="#FFFFFF" transform="translate(90,330)"/>
<path d="M0 0 C4.95 0 9.9 0 15 0 C15 4.95 15 9.9 15 15 C10.05 15 5.1 15 0 15 C0 10.05 0 5.1 0 0 Z " fill="#EEEEEF" transform="translate(75,330)"/>
<path d="M0 0 C4.95 0 9.9 0 15 0 C15 4.95 15 9.9 15 15 C10.05 15 5.1 15 0 15 C0 10.05 0 5.1 0 0 Z " fill="#FFFFFF" transform="translate(60,330)"/>
<path d="M0 0 C4.95 0 9.9 0 15 0 C15 4.95 15 9.9 15 15 C10.05 15 5.1 15 0 15 C0 10.05 0 5.1 0 0 Z " fill="#EEEEEF" transform="translate(45,330)"/>
<path d="M0 0 C4.95 0 9.9 0 15 0 C15 4.95 15 9.9 15 15 C10.05 15 5.1 15 0 15 C0 10.05 0 5.1 0 0 Z " fill="#FFFFFF" transform="translate(30,330)"/>
<path d="M0 0 C4.95 0 9.9 0 15 0 C15 4.95 15 9.9 15 15 C10.05 15 5.1 15 0 15 C0 10.05 0 5.1 0 0 Z " fill="#EEEEEF" transform="translate(15,330)"/>
<path d="M0 0 C4.95 0 9.9 0 15 0 C15 4.95 15 9.9 15 15 C10.05 15 5.1 15 0 15 C0 10.05 0 5.1 0 0 Z " fill="#FFFFFF" transform="translate(0,330)"/>
<path d="M0 0 C4.95 0 9.9 0 15 0 C15 4.95 15 9.9 15 15 C10.05 15 5.1 15 0 15 C0 10.05 0 5.1 0 0 Z " fill="#FFFFFF" transform="translate(345,315)"/>
<path d="M0 0 C4.95 0 9.9 0 15 0 C15 4.95 15 9.9 15 15 C10.05 15 5.1 15 0 15 C0 10.05 0 5.1 0 0 Z " fill="#FFFFFF" transform="translate(315,315)"/>
<path d="M0 0 C4.95 0 9.9 0 15 0 C15 4.95 15 9.9 15 15 C10.05 15 5.1 15 0 15 C0 10.05 0 5.1 0 0 Z " fill="#FFFFFF" transform="translate(285,315)"/>
<path d="M0 0 C4.95 0 9.9 0 15 0 C15 4.95 15 9.9 15 15 C10.05 15 5.1 15 0 15 C0 10.05 0 5.1 0 0 Z " fill="#EEEEEF" transform="translate(270,315)"/>
<path d="M0 0 C4.95 0 9.9 0 15 0 C15 4.95 15 9.9 15 15 C10.05 15 5.1 15 0 15 C0 10.05 0 5.1 0 0 Z " fill="#FFFFFF" transform="translate(255,315)"/>
<path d="M0 0 C4.95 0 9.9 0 15 0 C15 4.95 15 9.9 15 15 C10.05 15 5.1 15 0 15 C0 10.05 0 5.1 0 0 Z " fill="#EEEEEF" transform="translate(240,315)"/>
<path d="M0 0 C4.95 0 9.9 0 15 0 C15 4.95 15 9.9 15 15 C10.05 15 5.1 15 0 15 C0 10.05 0 5.1 0 0 Z " fill="#FFFFFF" transform="translate(105,315)"/>
<path d="M0 0 C4.95 0 9.9 0 15 0 C15 4.95 15 9.9 15 15 C10.05 15 5.1 15 0 15 C0 10.05 0 5.1 0 0 Z " fill="#EEEEEF" transform="translate(90,315)"/>
<path d="M0 0 C4.95 0 9.9 0 15 0 C15 4.95 15 9.9 15 15 C10.05 15 5.1 15 0 15 C0 10.05 0 5.1 0 0 Z " fill="#FFFFFF" transform="translate(75,315)"/>
<path d="M0 0 C4.95 0 9.9 0 15 0 C15 4.95 15 9.9 15 15 C10.05 15 5.1 15 0 15 C0 10.05 0 5.1 0 0 Z " fill="#EEEEEF" transform="translate(60,315)"/>
<path d="M0 0 C4.95 0 9.9 0 15 0 C15 4.95 15 9.9 15 15 C10.05 15 5.1 15 0 15 C0 10.05 0 5.1 0 0 Z " fill="#FFFFFF" transform="translate(45,315)"/>
<path d="M0 0 C4.95 0 9.9 0 15 0 C15 4.95 15 9.9 15 15 C10.05 15 5.1 15 0 15 C0 10.05 0 5.1 0 0 Z " fill="#EEEEEF" transform="translate(30,315)"/>
<path d="M0 0 C4.95 0 9.9 0 15 0 C15 4.95 15 9.9 15 15 C10.05 15 5.1 15 0 15 C0 10.05 0 5.1 0 0 Z " fill="#FFFFFF" transform="translate(15,315)"/>
<path d="M0 0 C4.95 0 9.9 0 15 0 C15 4.95 15 9.9 15 15 C10.05 15 5.1 15 0 15 C0 10.05 0 5.1 0 0 Z " fill="#EEEEEF" transform="translate(0,315)"/>
<path d="M0 0 C4.95 0 9.9 0 15 0 C15 4.95 15 9.9 15 15 C10.05 15 5.1 15 0 15 C0 10.05 0 5.1 0 0 Z " fill="#EEEEEF" transform="translate(345,300)"/>
<path d="M0 0 C4.95 0 9.9 0 15 0 C15 4.95 15 9.9 15 15 C10.05 15 5.1 15 0 15 C0 10.05 0 5.1 0 0 Z " fill="#FFFFFF" transform="translate(330,300)"/>
<path d="M0 0 C4.95 0 9.9 0 15 0 C15 4.95 15 9.9 15 15 C10.05 15 5.1 15 0 15 C0 10.05 0 5.1 0 0 Z " fill="#EEEEEF" transform="translate(315,300)"/>
<path d="M0 0 C4.95 0 9.9 0 15 0 C15 4.95 15 9.9 15 15 C10.05 15 5.1 15 0 15 C0 10.05 0 5.1 0 0 Z " fill="#FFFFFF" transform="translate(300,300)"/>
<path d="M0 0 C4.95 0 9.9 0 15 0 C15 4.95 15 9.9 15 15 C10.05 15 5.1 15 0 15 C0 10.05 0 5.1 0 0 Z " fill="#FFFFFF" transform="translate(270,300)"/>
<path d="M0 0 C4.95 0 9.9 0 15 0 C15 4.95 15 9.9 15 15 C10.05 15 5.1 15 0 15 C0 10.05 0 5.1 0 0 Z " fill="#EEEEEF" transform="translate(255,300)"/>
<path d="M0 0 C4.95 0 9.9 0 15 0 C15 4.95 15 9.9 15 15 C10.05 15 5.1 15 0 15 C0 10.05 0 5.1 0 0 Z " fill="#FFFFFF" transform="translate(90,300)"/>
<path d="M0 0 C4.95 0 9.9 0 15 0 C15 4.95 15 9.9 15 15 C10.05 15 5.1 15 0 15 C0 10.05 0 5.1 0 0 Z " fill="#EEEEEF" transform="translate(75,300)"/>
<path d="M0 0 C4.95 0 9.9 0 15 0 C15 4.95 15 9.9 15 15 C10.05 15 5.1 15 0 15 C0 10.05 0 5.1 0 0 Z " fill="#FFFFFF" transform="translate(60,300)"/>
<path d="M0 0 C4.95 0 9.9 0 15 0 C15 4.95 15 9.9 15 15 C10.05 15 5.1 15 0 15 C0 10.05 0 5.1 0 0 Z " fill="#EEEEEF" transform="translate(45,300)"/>
<path d="M0 0 C4.95 0 9.9 0 15 0 C15 4.95 15 9.9 15 15 C10.05 15 5.1 15 0 15 C0 10.05 0 5.1 0 0 Z " fill="#FFFFFF" transform="translate(30,300)"/>
<path d="M0 0 C4.95 0 9.9 0 15 0 C15 4.95 15 9.9 15 15 C10.05 15 5.1 15 0 15 C0 10.05 0 5.1 0 0 Z " fill="#EEEEEF" transform="translate(15,300)"/>
<path d="M0 0 C4.95 0 9.9 0 15 0 C15 4.95 15 9.9 15 15 C10.05 15 5.1 15 0 15 C0 10.05 0 5.1 0 0 Z " fill="#FFFFFF" transform="translate(0,300)"/>
<path d="M0 0 C4.95 0 9.9 0 15 0 C15 4.95 15 9.9 15 15 C10.05 15 5.1 15 0 15 C0 10.05 0 5.1 0 0 Z " fill="#FFFFFF" transform="translate(345,285)"/>
<path d="M0 0 C4.95 0 9.9 0 15 0 C15 4.95 15 9.9 15 15 C10.05 15 5.1 15 0 15 C0 10.05 0 5.1 0 0 Z " fill="#EEEEEF" transform="translate(330,285)"/>
<path d="M0 0 C4.95 0 9.9 0 15 0 C15 4.95 15 9.9 15 15 C10.05 15 5.1 15 0 15 C0 10.05 0 5.1 0 0 Z " fill="#FFFFFF" transform="translate(315,285)"/>
<path d="M0 0 C4.95 0 9.9 0 15 0 C15 4.95 15 9.9 15 15 C10.05 15 5.1 15 0 15 C0 10.05 0 5.1 0 0 Z " fill="#EEEEEF" transform="translate(300,285)"/>
<path d="M0 0 C4.95 0 9.9 0 15 0 C15 4.95 15 9.9 15 15 C10.05 15 5.1 15 0 15 C0 10.05 0 5.1 0 0 Z " fill="#FFFFFF" transform="translate(285,285)"/>
<path d="M0 0 C4.95 0 9.9 0 15 0 C15 4.95 15 9.9 15 15 C10.05 15 5.1 15 0 15 C0 10.05 0 5.1 0 0 Z " fill="#EEEEEF" transform="translate(60,285)"/>
<path d="M0 0 C4.95 0 9.9 0 15 0 C15 4.95 15 9.9 15 15 C10.05 15 5.1 15 0 15 C0 10.05 0 5.1 0 0 Z " fill="#FFFFFF" transform="translate(45,285)"/>
<path d="M0 0 C4.95 0 9.9 0 15 0 C15 4.95 15 9.9 15 15 C10.05 15 5.1 15 0 15 C0 10.05 0 5.1 0 0 Z " fill="#EEEEEF" transform="translate(30,285)"/>
<path d="M0 0 C4.95 0 9.9 0 15 0 C15 4.95 15 9.9 15 15 C10.05 15 5.1 15 0 15 C0 10.05 0 5.1 0 0 Z " fill="#FFFFFF" transform="translate(15,285)"/>
<path d="M0 0 C4.95 0 9.9 0 15 0 C15 4.95 15 9.9 15 15 C10.05 15 5.1 15 0 15 C0 10.05 0 5.1 0 0 Z " fill="#EEEEEF" transform="translate(0,285)"/>
<path d="M0 0 C4.95 0 9.9 0 15 0 C15 4.95 15 9.9 15 15 C10.05 15 5.1 15 0 15 C0 10.05 0 5.1 0 0 Z " fill="#EEEEEF" transform="translate(345,270)"/>
<path d="M0 0 C4.95 0 9.9 0 15 0 C15 4.95 15 9.9 15 15 C10.05 15 5.1 15 0 15 C0 10.05 0 5.1 0 0 Z " fill="#FFFFFF" transform="translate(330,270)"/>
<path d="M0 0 C4.95 0 9.9 0 15 0 C15 4.95 15 9.9 15 15 C10.05 15 5.1 15 0 15 C0 10.05 0 5.1 0 0 Z " fill="#EEEEEF" transform="translate(315,270)"/>
<path d="M0 0 C4.95 0 9.9 0 15 0 C15 4.95 15 9.9 15 15 C10.05 15 5.1 15 0 15 C0 10.05 0 5.1 0 0 Z " fill="#FFFFFF" transform="translate(30,270)"/>
<path d="M0 0 C4.95 0 9.9 0 15 0 C15 4.95 15 9.9 15 15 C10.05 15 5.1 15 0 15 C0 10.05 0 5.1 0 0 Z " fill="#EEEEEF" transform="translate(15,270)"/>
<path d="M0 0 C4.95 0 9.9 0 15 0 C15 4.95 15 9.9 15 15 C10.05 15 5.1 15 0 15 C0 10.05 0 5.1 0 0 Z " fill="#FFFFFF" transform="translate(0,270)"/>
<path d="M0 0 C4.95 0 9.9 0 15 0 C15 4.95 15 9.9 15 15 C10.05 15 5.1 15 0 15 C0 10.05 0 5.1 0 0 Z " fill="#FFFFFF" transform="translate(345,255)"/>
<path d="M0 0 C4.95 0 9.9 0 15 0 C15 4.95 15 9.9 15 15 C10.05 15 5.1 15 0 15 C0 10.05 0 5.1 0 0 Z " fill="#EEEEEF" transform="translate(330,255)"/>
<path d="M0 0 C4.95 0 9.9 0 15 0 C15 4.95 15 9.9 15 15 C10.05 15 5.1 15 0 15 C0 10.05 0 5.1 0 0 Z " fill="#FFFFFF" transform="translate(15,255)"/>
<path d="M0 0 C4.95 0 9.9 0 15 0 C15 4.95 15 9.9 15 15 C10.05 15 5.1 15 0 15 C0 10.05 0 5.1 0 0 Z " fill="#EEEEEF" transform="translate(0,255)"/>
<path d="M0 0 C4.95 0 9.9 0 15 0 C15 4.95 15 9.9 15 15 C10.05 15 5.1 15 0 15 C0 10.05 0 5.1 0 0 Z " fill="#EEEEEF" transform="translate(345,240)"/>
<path d="M0 0 C4.95 0 9.9 0 15 0 C15 4.95 15 9.9 15 15 C10.05 15 5.1 15 0 15 C0 10.05 0 5.1 0 0 Z " fill="#EEEEEF" transform="translate(15,240)"/>
<path d="M0 0 C4.95 0 9.9 0 15 0 C15 4.95 15 9.9 15 15 C10.05 15 5.1 15 0 15 C0 10.05 0 5.1 0 0 Z " fill="#FFFFFF" transform="translate(0,240)"/>
<path d="M0 0 C4.95 0 9.9 0 15 0 C15 4.95 15 9.9 15 15 C10.05 15 5.1 15 0 15 C0 10.05 0 5.1 0 0 Z " fill="#FFFFFF" transform="translate(345,225)"/>
<path d="M0 0 C4.95 0 9.9 0 15 0 C15 4.95 15 9.9 15 15 C10.05 15 5.1 15 0 15 C0 10.05 0 5.1 0 0 Z " fill="#EEEEEF" transform="translate(330,225)"/>
<path d="M0 0 C4.95 0 9.9 0 15 0 C15 4.95 15 9.9 15 15 C10.05 15 5.1 15 0 15 C0 10.05 0 5.1 0 0 Z " fill="#EEEEEF" transform="translate(0,225)"/>
<path d="M0 0 C4.95 0 9.9 0 15 0 C15 4.95 15 9.9 15 15 C10.05 15 5.1 15 0 15 C0 10.05 0 5.1 0 0 Z " fill="#EEEEEF" transform="translate(345,210)"/>
<path d="M0 0 C4.95 0 9.9 0 15 0 C15 4.95 15 9.9 15 15 C10.05 15 5.1 15 0 15 C0 10.05 0 5.1 0 0 Z " fill="#EEEEEF" transform="translate(15,210)"/>
<path d="M0 0 C4.95 0 9.9 0 15 0 C15 4.95 15 9.9 15 15 C10.05 15 5.1 15 0 15 C0 10.05 0 5.1 0 0 Z " fill="#FFFFFF" transform="translate(0,210)"/>
<path d="M0 0 C4.95 0 9.9 0 15 0 C15 4.95 15 9.9 15 15 C10.05 15 5.1 15 0 15 C0 10.05 0 5.1 0 0 Z " fill="#FFFFFF" transform="translate(345,195)"/>
<path d="M0 0 C4.95 0 9.9 0 15 0 C15 4.95 15 9.9 15 15 C10.05 15 5.1 15 0 15 C0 10.05 0 5.1 0 0 Z " fill="#EEEEEF" transform="translate(330,195)"/>
<path d="M0 0 C4.95 0 9.9 0 15 0 C15 4.95 15 9.9 15 15 C10.05 15 5.1 15 0 15 C0 10.05 0 5.1 0 0 Z " fill="#EEEEEF" transform="translate(0,195)"/>
<path d="M0 0 C4.95 0 9.9 0 15 0 C15 4.95 15 9.9 15 15 C10.05 15 5.1 15 0 15 C0 10.05 0 5.1 0 0 Z " fill="#EEEEEF" transform="translate(345,180)"/>
<path d="M0 0 C4.95 0 9.9 0 15 0 C15 4.95 15 9.9 15 15 C10.05 15 5.1 15 0 15 C0 10.05 0 5.1 0 0 Z " fill="#FFFFFF" transform="translate(330,180)"/>
<path d="M0 0 C4.95 0 9.9 0 15 0 C15 4.95 15 9.9 15 15 C10.05 15 5.1 15 0 15 C0 10.05 0 5.1 0 0 Z " fill="#EEEEEF" transform="translate(15,180)"/>
<path d="M0 0 C4.95 0 9.9 0 15 0 C15 4.95 15 9.9 15 15 C10.05 15 5.1 15 0 15 C0 10.05 0 5.1 0 0 Z " fill="#FFFFFF" transform="translate(0,180)"/>
<path d="M0 0 C4.95 0 9.9 0 15 0 C15 4.95 15 9.9 15 15 C10.05 15 5.1 15 0 15 C0 10.05 0 5.1 0 0 Z " fill="#FFFFFF" transform="translate(345,165)"/>
<path d="M0 0 C4.95 0 9.9 0 15 0 C15 4.95 15 9.9 15 15 C10.05 15 5.1 15 0 15 C0 10.05 0 5.1 0 0 Z " fill="#EEEEEF" transform="translate(330,165)"/>
<path d="M0 0 C4.95 0 9.9 0 15 0 C15 4.95 15 9.9 15 15 C10.05 15 5.1 15 0 15 C0 10.05 0 5.1 0 0 Z " fill="#FFFFFF" transform="translate(15,165)"/>
<path d="M0 0 C4.95 0 9.9 0 15 0 C15 4.95 15 9.9 15 15 C10.05 15 5.1 15 0 15 C0 10.05 0 5.1 0 0 Z " fill="#EEEEEF" transform="translate(0,165)"/>
<path d="M0 0 C4.95 0 9.9 0 15 0 C15 4.95 15 9.9 15 15 C10.05 15 5.1 15 0 15 C0 10.05 0 5.1 0 0 Z " fill="#EEEEEF" transform="translate(345,150)"/>
<path d="M0 0 C4.95 0 9.9 0 15 0 C15 4.95 15 9.9 15 15 C10.05 15 5.1 15 0 15 C0 10.05 0 5.1 0 0 Z " fill="#FFFFFF" transform="translate(330,150)"/>
<path d="M0 0 C4.95 0 9.9 0 15 0 C15 4.95 15 9.9 15 15 C10.05 15 5.1 15 0 15 C0 10.05 0 5.1 0 0 Z " fill="#EEEEEF" transform="translate(15,150)"/>
<path d="M0 0 C4.95 0 9.9 0 15 0 C15 4.95 15 9.9 15 15 C10.05 15 5.1 15 0 15 C0 10.05 0 5.1 0 0 Z " fill="#FFFFFF" transform="translate(0,150)"/>
<path d="M0 0 C4.95 0 9.9 0 15 0 C15 4.95 15 9.9 15 15 C10.05 15 5.1 15 0 15 C0 10.05 0 5.1 0 0 Z " fill="#FFFFFF" transform="translate(345,135)"/>
<path d="M0 0 C4.95 0 9.9 0 15 0 C15 4.95 15 9.9 15 15 C10.05 15 5.1 15 0 15 C0 10.05 0 5.1 0 0 Z " fill="#EEEEEF" transform="translate(330,135)"/>
<path d="M0 0 C4.95 0 9.9 0 15 0 C15 4.95 15 9.9 15 15 C10.05 15 5.1 15 0 15 C0 10.05 0 5.1 0 0 Z " fill="#FFFFFF" transform="translate(15,135)"/>
<path d="M0 0 C4.95 0 9.9 0 15 0 C15 4.95 15 9.9 15 15 C10.05 15 5.1 15 0 15 C0 10.05 0 5.1 0 0 Z " fill="#EEEEEF" transform="translate(0,135)"/>
<path d="M0 0 C4.95 0 9.9 0 15 0 C15 4.95 15 9.9 15 15 C10.05 15 5.1 15 0 15 C0 10.05 0 5.1 0 0 Z " fill="#EEEEEF" transform="translate(345,120)"/>
<path d="M0 0 C4.95 0 9.9 0 15 0 C15 4.95 15 9.9 15 15 C10.05 15 5.1 15 0 15 C0 10.05 0 5.1 0 0 Z " fill="#FFFFFF" transform="translate(330,120)"/>
<path d="M0 0 C4.95 0 9.9 0 15 0 C15 4.95 15 9.9 15 15 C10.05 15 5.1 15 0 15 C0 10.05 0 5.1 0 0 Z " fill="#EEEEEF" transform="translate(15,120)"/>
<path d="M0 0 C4.95 0 9.9 0 15 0 C15 4.95 15 9.9 15 15 C10.05 15 5.1 15 0 15 C0 10.05 0 5.1 0 0 Z " fill="#FFFFFF" transform="translate(0,120)"/>
<path d="M0 0 C4.95 0 9.9 0 15 0 C15 4.95 15 9.9 15 15 C10.05 15 5.1 15 0 15 C0 10.05 0 5.1 0 0 Z " fill="#FFFFFF" transform="translate(345,105)"/>
<path d="M0 0 C4.95 0 9.9 0 15 0 C15 4.95 15 9.9 15 15 C10.05 15 5.1 15 0 15 C0 10.05 0 5.1 0 0 Z " fill="#EEEEEF" transform="translate(330,105)"/>
<path d="M0 0 C4.95 0 9.9 0 15 0 C15 4.95 15 9.9 15 15 C10.05 15 5.1 15 0 15 C0 10.05 0 5.1 0 0 Z " fill="#FFFFFF" transform="translate(15,105)"/>
<path d="M0 0 C4.95 0 9.9 0 15 0 C15 4.95 15 9.9 15 15 C10.05 15 5.1 15 0 15 C0 10.05 0 5.1 0 0 Z " fill="#EEEEEF" transform="translate(0,105)"/>
<path d="M0 0 C4.95 0 9.9 0 15 0 C15 4.95 15 9.9 15 15 C10.05 15 5.1 15 0 15 C0 10.05 0 5.1 0 0 Z " fill="#EEEEEF" transform="translate(345,90)"/>
<path d="M0 0 C4.95 0 9.9 0 15 0 C15 4.95 15 9.9 15 15 C10.05 15 5.1 15 0 15 C0 10.05 0 5.1 0 0 Z " fill="#FFFFFF" transform="translate(330,90)"/>
<path d="M0 0 C4.95 0 9.9 0 15 0 C15 4.95 15 9.9 15 15 C10.05 15 5.1 15 0 15 C0 10.05 0 5.1 0 0 Z " fill="#EEEEEF" transform="translate(15,90)"/>
<path d="M0 0 C4.95 0 9.9 0 15 0 C15 4.95 15 9.9 15 15 C10.05 15 5.1 15 0 15 C0 10.05 0 5.1 0 0 Z " fill="#FFFFFF" transform="translate(0,90)"/>
<path d="M0 0 C4.95 0 9.9 0 15 0 C15 4.95 15 9.9 15 15 C10.05 15 5.1 15 0 15 C0 10.05 0 5.1 0 0 Z " fill="#FFFFFF" transform="translate(345,75)"/>
<path d="M0 0 C4.95 0 9.9 0 15 0 C15 4.95 15 9.9 15 15 C10.05 15 5.1 15 0 15 C0 10.05 0 5.1 0 0 Z " fill="#EEEEEF" transform="translate(330,75)"/>
<path d="M0 0 C4.95 0 9.9 0 15 0 C15 4.95 15 9.9 15 15 C10.05 15 5.1 15 0 15 C0 10.05 0 5.1 0 0 Z " fill="#FFFFFF" transform="translate(315,75)"/>
<path d="M0 0 C4.95 0 9.9 0 15 0 C15 4.95 15 9.9 15 15 C10.05 15 5.1 15 0 15 C0 10.05 0 5.1 0 0 Z " fill="#EEEEEF" transform="translate(30,75)"/>
<path d="M0 0 C4.95 0 9.9 0 15 0 C15 4.95 15 9.9 15 15 C10.05 15 5.1 15 0 15 C0 10.05 0 5.1 0 0 Z " fill="#FFFFFF" transform="translate(15,75)"/>
<path d="M0 0 C4.95 0 9.9 0 15 0 C15 4.95 15 9.9 15 15 C10.05 15 5.1 15 0 15 C0 10.05 0 5.1 0 0 Z " fill="#EEEEEF" transform="translate(0,75)"/>
<path d="M0 0 C4.95 0 9.9 0 15 0 C15 4.95 15 9.9 15 15 C10.05 15 5.1 15 0 15 C0 10.05 0 5.1 0 0 Z " fill="#EEEEEF" transform="translate(345,60)"/>
<path d="M0 0 C4.95 0 9.9 0 15 0 C15 4.95 15 9.9 15 15 C10.05 15 5.1 15 0 15 C0 10.05 0 5.1 0 0 Z " fill="#FFFFFF" transform="translate(330,60)"/>
<path d="M0 0 C4.95 0 9.9 0 15 0 C15 4.95 15 9.9 15 15 C10.05 15 5.1 15 0 15 C0 10.05 0 5.1 0 0 Z " fill="#EEEEEF" transform="translate(315,60)"/>
<path d="M0 0 C4.95 0 9.9 0 15 0 C15 4.95 15 9.9 15 15 C10.05 15 5.1 15 0 15 C0 10.05 0 5.1 0 0 Z " fill="#FFFFFF" transform="translate(300,60)"/>
<path d="M0 0 C4.95 0 9.9 0 15 0 C15 4.95 15 9.9 15 15 C10.05 15 5.1 15 0 15 C0 10.05 0 5.1 0 0 Z " fill="#EEEEEF" transform="translate(285,60)"/>
<path d="M0 0 C4.95 0 9.9 0 15 0 C15 4.95 15 9.9 15 15 C10.05 15 5.1 15 0 15 C0 10.05 0 5.1 0 0 Z " fill="#FFFFFF" transform="translate(60,60)"/>
<path d="M0 0 C4.95 0 9.9 0 15 0 C15 4.95 15 9.9 15 15 C10.05 15 5.1 15 0 15 C0 10.05 0 5.1 0 0 Z " fill="#EEEEEF" transform="translate(45,60)"/>
<path d="M0 0 C4.95 0 9.9 0 15 0 C15 4.95 15 9.9 15 15 C10.05 15 5.1 15 0 15 C0 10.05 0 5.1 0 0 Z " fill="#FFFFFF" transform="translate(30,60)"/>
<path d="M0 0 C4.95 0 9.9 0 15 0 C15 4.95 15 9.9 15 15 C10.05 15 5.1 15 0 15 C0 10.05 0 5.1 0 0 Z " fill="#EEEEEF" transform="translate(15,60)"/>
<path d="M0 0 C4.95 0 9.9 0 15 0 C15 4.95 15 9.9 15 15 C10.05 15 5.1 15 0 15 C0 10.05 0 5.1 0 0 Z " fill="#FFFFFF" transform="translate(0,60)"/>
<path d="M0 0 C4.95 0 9.9 0 15 0 C15 4.95 15 9.9 15 15 C10.05 15 5.1 15 0 15 C0 10.05 0 5.1 0 0 Z " fill="#FFFFFF" transform="translate(345,45)"/>
<path d="M0 0 C4.95 0 9.9 0 15 0 C15 4.95 15 9.9 15 15 C10.05 15 5.1 15 0 15 C0 10.05 0 5.1 0 0 Z " fill="#EEEEEF" transform="translate(330,45)"/>
<path d="M0 0 C4.95 0 9.9 0 15 0 C15 4.95 15 9.9 15 15 C10.05 15 5.1 15 0 15 C0 10.05 0 5.1 0 0 Z " fill="#FFFFFF" transform="translate(315,45)"/>
<path d="M0 0 C4.95 0 9.9 0 15 0 C15 4.95 15 9.9 15 15 C10.05 15 5.1 15 0 15 C0 10.05 0 5.1 0 0 Z " fill="#EEEEEF" transform="translate(300,45)"/>
<path d="M0 0 C4.95 0 9.9 0 15 0 C15 4.95 15 9.9 15 15 C10.05 15 5.1 15 0 15 C0 10.05 0 5.1 0 0 Z " fill="#FFFFFF" transform="translate(285,45)"/>
<path d="M0 0 C4.95 0 9.9 0 15 0 C15 4.95 15 9.9 15 15 C10.05 15 5.1 15 0 15 C0 10.05 0 5.1 0 0 Z " fill="#EEEEEF" transform="translate(270,45)"/>
<path d="M0 0 C4.95 0 9.9 0 15 0 C15 4.95 15 9.9 15 15 C10.05 15 5.1 15 0 15 C0 10.05 0 5.1 0 0 Z " fill="#FFFFFF" transform="translate(255,45)"/>
<path d="M0 0 C4.95 0 9.9 0 15 0 C15 4.95 15 9.9 15 15 C10.05 15 5.1 15 0 15 C0 10.05 0 5.1 0 0 Z " fill="#EEEEEF" transform="translate(90,45)"/>
<path d="M0 0 C4.95 0 9.9 0 15 0 C15 4.95 15 9.9 15 15 C10.05 15 5.1 15 0 15 C0 10.05 0 5.1 0 0 Z " fill="#FFFFFF" transform="translate(75,45)"/>
<path d="M0 0 C4.95 0 9.9 0 15 0 C15 4.95 15 9.9 15 15 C10.05 15 5.1 15 0 15 C0 10.05 0 5.1 0 0 Z " fill="#EEEEEF" transform="translate(60,45)"/>
<path d="M0 0 C4.95 0 9.9 0 15 0 C15 4.95 15 9.9 15 15 C10.05 15 5.1 15 0 15 C0 10.05 0 5.1 0 0 Z " fill="#FFFFFF" transform="translate(45,45)"/>
<path d="M0 0 C4.95 0 9.9 0 15 0 C15 4.95 15 9.9 15 15 C10.05 15 5.1 15 0 15 C0 10.05 0 5.1 0 0 Z " fill="#EEEEEF" transform="translate(30,45)"/>
<path d="M0 0 C4.95 0 9.9 0 15 0 C15 4.95 15 9.9 15 15 C10.05 15 5.1 15 0 15 C0 10.05 0 5.1 0 0 Z " fill="#FFFFFF" transform="translate(15,45)"/>
<path d="M0 0 C4.95 0 9.9 0 15 0 C15 4.95 15 9.9 15 15 C10.05 15 5.1 15 0 15 C0 10.05 0 5.1 0 0 Z " fill="#EEEEEF" transform="translate(0,45)"/>
<path d="M0 0 C4.95 0 9.9 0 15 0 C15 4.95 15 9.9 15 15 C10.05 15 5.1 15 0 15 C0 10.05 0 5.1 0 0 Z " fill="#EEEEEF" transform="translate(345,30)"/>
<path d="M0 0 C4.95 0 9.9 0 15 0 C15 4.95 15 9.9 15 15 C10.05 15 5.1 15 0 15 C0 10.05 0 5.1 0 0 Z " fill="#FFFFFF" transform="translate(330,30)"/>
<path d="M0 0 C4.95 0 9.9 0 15 0 C15 4.95 15 9.9 15 15 C10.05 15 5.1 15 0 15 C0 10.05 0 5.1 0 0 Z " fill="#EEEEEF" transform="translate(315,30)"/>
<path d="M0 0 C4.95 0 9.9 0 15 0 C15 4.95 15 9.9 15 15 C10.05 15 5.1 15 0 15 C0 10.05 0 5.1 0 0 Z " fill="#FFFFFF" transform="translate(300,30)"/>
<path d="M0 0 C4.95 0 9.9 0 15 0 C15 4.95 15 9.9 15 15 C10.05 15 5.1 15 0 15 C0 10.05 0 5.1 0 0 Z " fill="#EEEEEF" transform="translate(285,30)"/>
<path d="M0 0 C4.95 0 9.9 0 15 0 C15 4.95 15 9.9 15 15 C10.05 15 5.1 15 0 15 C0 10.05 0 5.1 0 0 Z " fill="#FFFFFF" transform="translate(270,30)"/>
<path d="M0 0 C4.95 0 9.9 0 15 0 C15 4.95 15 9.9 15 15 C10.05 15 5.1 15 0 15 C0 10.05 0 5.1 0 0 Z " fill="#EEEEEF" transform="translate(255,30)"/>
<path d="M0 0 C4.95 0 9.9 0 15 0 C15 4.95 15 9.9 15 15 C10.05 15 5.1 15 0 15 C0 10.05 0 5.1 0 0 Z " fill="#FFFFFF" transform="translate(240,30)"/>
<path d="M0 0 C4.95 0 9.9 0 15 0 C15 4.95 15 9.9 15 15 C10.05 15 5.1 15 0 15 C0 10.05 0 5.1 0 0 Z " fill="#EEEEEF" transform="translate(105,30)"/>
<path d="M0 0 C4.95 0 9.9 0 15 0 C15 4.95 15 9.9 15 15 C10.05 15 5.1 15 0 15 C0 10.05 0 5.1 0 0 Z " fill="#FFFFFF" transform="translate(90,30)"/>
<path d="M0 0 C4.95 0 9.9 0 15 0 C15 4.95 15 9.9 15 15 C10.05 15 5.1 15 0 15 C0 10.05 0 5.1 0 0 Z " fill="#EEEEEF" transform="translate(75,30)"/>
<path d="M0 0 C4.95 0 9.9 0 15 0 C15 4.95 15 9.9 15 15 C10.05 15 5.1 15 0 15 C0 10.05 0 5.1 0 0 Z " fill="#FFFFFF" transform="translate(60,30)"/>
<path d="M0 0 C4.95 0 9.9 0 15 0 C15 4.95 15 9.9 15 15 C10.05 15 5.1 15 0 15 C0 10.05 0 5.1 0 0 Z " fill="#EEEEEF" transform="translate(45,30)"/>
<path d="M0 0 C4.95 0 9.9 0 15 0 C15 4.95 15 9.9 15 15 C10.05 15 5.1 15 0 15 C0 10.05 0 5.1 0 0 Z " fill="#FFFFFF" transform="translate(30,30)"/>
<path d="M0 0 C4.95 0 9.9 0 15 0 C15 4.95 15 9.9 15 15 C10.05 15 5.1 15 0 15 C0 10.05 0 5.1 0 0 Z " fill="#EEEEEF" transform="translate(15,30)"/>
<path d="M0 0 C4.95 0 9.9 0 15 0 C15 4.95 15 9.9 15 15 C10.05 15 5.1 15 0 15 C0 10.05 0 5.1 0 0 Z " fill="#FFFFFF" transform="translate(0,30)"/>
<path d="M0 0 C4.95 0 9.9 0 15 0 C15 4.95 15 9.9 15 15 C10.05 15 5.1 15 0 15 C0 10.05 0 5.1 0 0 Z " fill="#FFFFFF" transform="translate(345,15)"/>
<path d="M0 0 C4.95 0 9.9 0 15 0 C15 4.95 15 9.9 15 15 C10.05 15 5.1 15 0 15 C0 10.05 0 5.1 0 0 Z " fill="#EEEEEF" transform="translate(330,15)"/>
<path d="M0 0 C4.95 0 9.9 0 15 0 C15 4.95 15 9.9 15 15 C10.05 15 5.1 15 0 15 C0 10.05 0 5.1 0 0 Z " fill="#FFFFFF" transform="translate(315,15)"/>
<path d="M0 0 C4.95 0 9.9 0 15 0 C15 4.95 15 9.9 15 15 C10.05 15 5.1 15 0 15 C0 10.05 0 5.1 0 0 Z " fill="#EEEEEF" transform="translate(300,15)"/>
<path d="M0 0 C4.95 0 9.9 0 15 0 C15 4.95 15 9.9 15 15 C10.05 15 5.1 15 0 15 C0 10.05 0 5.1 0 0 Z " fill="#FFFFFF" transform="translate(285,15)"/>
<path d="M0 0 C4.95 0 9.9 0 15 0 C15 4.95 15 9.9 15 15 C10.05 15 5.1 15 0 15 C0 10.05 0 5.1 0 0 Z " fill="#EEEEEF" transform="translate(270,15)"/>
<path d="M0 0 C4.95 0 9.9 0 15 0 C15 4.95 15 9.9 15 15 C10.05 15 5.1 15 0 15 C0 10.05 0 5.1 0 0 Z " fill="#FFFFFF" transform="translate(255,15)"/>
<path d="M0 0 C4.95 0 9.9 0 15 0 C15 4.95 15 9.9 15 15 C10.05 15 5.1 15 0 15 C0 10.05 0 5.1 0 0 Z " fill="#EEEEEF" transform="translate(240,15)"/>
<path d="M0 0 C4.95 0 9.9 0 15 0 C15 4.95 15 9.9 15 15 C10.05 15 5.1 15 0 15 C0 10.05 0 5.1 0 0 Z " fill="#FFFFFF" transform="translate(225,15)"/>
<path d="M0 0 C4.95 0 9.9 0 15 0 C15 4.95 15 9.9 15 15 C10.05 15 5.1 15 0 15 C0 10.05 0 5.1 0 0 Z " fill="#EEEEEF" transform="translate(210,15)"/>
<path d="M0 0 C4.95 0 9.9 0 15 0 C15 4.95 15 9.9 15 15 C10.05 15 5.1 15 0 15 C0 10.05 0 5.1 0 0 Z " fill="#FFFFFF" transform="translate(135,15)"/>
<path d="M0 0 C4.95 0 9.9 0 15 0 C15 4.95 15 9.9 15 15 C10.05 15 5.1 15 0 15 C0 10.05 0 5.1 0 0 Z " fill="#EEEEEF" transform="translate(120,15)"/>
<path d="M0 0 C4.95 0 9.9 0 15 0 C15 4.95 15 9.9 15 15 C10.05 15 5.1 15 0 15 C0 10.05 0 5.1 0 0 Z " fill="#FFFFFF" transform="translate(105,15)"/>
<path d="M0 0 C4.95 0 9.9 0 15 0 C15 4.95 15 9.9 15 15 C10.05 15 5.1 15 0 15 C0 10.05 0 5.1 0 0 Z " fill="#EEEEEF" transform="translate(90,15)"/>
<path d="M0 0 C4.95 0 9.9 0 15 0 C15 4.95 15 9.9 15 15 C10.05 15 5.1 15 0 15 C0 10.05 0 5.1 0 0 Z " fill="#FFFFFF" transform="translate(75,15)"/>
<path d="M0 0 C4.95 0 9.9 0 15 0 C15 4.95 15 9.9 15 15 C10.05 15 5.1 15 0 15 C0 10.05 0 5.1 0 0 Z " fill="#EEEEEF" transform="translate(60,15)"/>
<path d="M0 0 C4.95 0 9.9 0 15 0 C15 4.95 15 9.9 15 15 C10.05 15 5.1 15 0 15 C0 10.05 0 5.1 0 0 Z " fill="#FFFFFF" transform="translate(45,15)"/>
<path d="M0 0 C4.95 0 9.9 0 15 0 C15 4.95 15 9.9 15 15 C10.05 15 5.1 15 0 15 C0 10.05 0 5.1 0 0 Z " fill="#EEEEEF" transform="translate(30,15)"/>
<path d="M0 0 C4.95 0 9.9 0 15 0 C15 4.95 15 9.9 15 15 C10.05 15 5.1 15 0 15 C0 10.05 0 5.1 0 0 Z " fill="#FFFFFF" transform="translate(15,15)"/>
<path d="M0 0 C4.95 0 9.9 0 15 0 C15 4.95 15 9.9 15 15 C10.05 15 5.1 15 0 15 C0 10.05 0 5.1 0 0 Z " fill="#EEEEEF" transform="translate(0,15)"/>
<path d="M0 0 C4.95 0 9.9 0 15 0 C15 4.95 15 9.9 15 15 C10.05 15 5.1 15 0 15 C0 10.05 0 5.1 0 0 Z " fill="#EEEEEF" transform="translate(345,0)"/>
<path d="M0 0 C4.95 0 9.9 0 15 0 C15 4.95 15 9.9 15 15 C10.05 15 5.1 15 0 15 C0 10.05 0 5.1 0 0 Z " fill="#FFFFFF" transform="translate(330,0)"/>
<path d="M0 0 C4.95 0 9.9 0 15 0 C15 4.95 15 9.9 15 15 C10.05 15 5.1 15 0 15 C0 10.05 0 5.1 0 0 Z " fill="#EEEEEF" transform="translate(315,0)"/>
<path d="M0 0 C4.95 0 9.9 0 15 0 C15 4.95 15 9.9 15 15 C10.05 15 5.1 15 0 15 C0 10.05 0 5.1 0 0 Z " fill="#FFFFFF" transform="translate(300,0)"/>
<path d="M0 0 C4.95 0 9.9 0 15 0 C15 4.95 15 9.9 15 15 C10.05 15 5.1 15 0 15 C0 10.05 0 5.1 0 0 Z " fill="#EEEEEF" transform="translate(285,0)"/>
<path d="M0 0 C4.95 0 9.9 0 15 0 C15 4.95 15 9.9 15 15 C10.05 15 5.1 15 0 15 C0 10.05 0 5.1 0 0 Z " fill="#FFFFFF" transform="translate(270,0)"/>
<path d="M0 0 C4.95 0 9.9 0 15 0 C15 4.95 15 9.9 15 15 C10.05 15 5.1 15 0 15 C0 10.05 0 5.1 0 0 Z " fill="#EEEEEF" transform="translate(255,0)"/>
<path d="M0 0 C4.95 0 9.9 0 15 0 C15 4.95 15 9.9 15 15 C10.05 15 5.1 15 0 15 C0 10.05 0 5.1 0 0 Z " fill="#FFFFFF" transform="translate(240,0)"/>
<path d="M0 0 C4.95 0 9.9 0 15 0 C15 4.95 15 9.9 15 15 C10.05 15 5.1 15 0 15 C0 10.05 0 5.1 0 0 Z " fill="#EEEEEF" transform="translate(225,0)"/>
<path d="M0 0 C4.95 0 9.9 0 15 0 C15 4.95 15 9.9 15 15 C10.05 15 5.1 15 0 15 C0 10.05 0 5.1 0 0 Z " fill="#FFFFFF" transform="translate(210,0)"/>
<path d="M0 0 C4.95 0 9.9 0 15 0 C15 4.95 15 9.9 15 15 C10.05 15 5.1 15 0 15 C0 10.05 0 5.1 0 0 Z " fill="#FFFFFF" transform="translate(180,0)"/>
<path d="M0 0 C4.95 0 9.9 0 15 0 C15 4.95 15 9.9 15 15 C10.05 15 5.1 15 0 15 C0 10.05 0 5.1 0 0 Z " fill="#FFFFFF" transform="translate(150,0)"/>
<path d="M0 0 C4.95 0 9.9 0 15 0 C15 4.95 15 9.9 15 15 C10.05 15 5.1 15 0 15 C0 10.05 0 5.1 0 0 Z " fill="#EEEEEF" transform="translate(135,0)"/>
<path d="M0 0 C4.95 0 9.9 0 15 0 C15 4.95 15 9.9 15 15 C10.05 15 5.1 15 0 15 C0 10.05 0 5.1 0 0 Z " fill="#FFFFFF" transform="translate(120,0)"/>
<path d="M0 0 C4.95 0 9.9 0 15 0 C15 4.95 15 9.9 15 15 C10.05 15 5.1 15 0 15 C0 10.05 0 5.1 0 0 Z " fill="#EEEEEF" transform="translate(105,0)"/>
<path d="M0 0 C4.95 0 9.9 0 15 0 C15 4.95 15 9.9 15 15 C10.05 15 5.1 15 0 15 C0 10.05 0 5.1 0 0 Z " fill="#FFFFFF" transform="translate(90,0)"/>
<path d="M0 0 C4.95 0 9.9 0 15 0 C15 4.95 15 9.9 15 15 C10.05 15 5.1 15 0 15 C0 10.05 0 5.1 0 0 Z " fill="#EEEEEF" transform="translate(75,0)"/>
<path d="M0 0 C4.95 0 9.9 0 15 0 C15 4.95 15 9.9 15 15 C10.05 15 5.1 15 0 15 C0 10.05 0 5.1 0 0 Z " fill="#FFFFFF" transform="translate(60,0)"/>
<path d="M0 0 C4.95 0 9.9 0 15 0 C15 4.95 15 9.9 15 15 C10.05 15 5.1 15 0 15 C0 10.05 0 5.1 0 0 Z " fill="#EEEEEF" transform="translate(45,0)"/>
<path d="M0 0 C4.95 0 9.9 0 15 0 C15 4.95 15 9.9 15 15 C10.05 15 5.1 15 0 15 C0 10.05 0 5.1 0 0 Z " fill="#FFFFFF" transform="translate(30,0)"/>
<path d="M0 0 C4.95 0 9.9 0 15 0 C15 4.95 15 9.9 15 15 C10.05 15 5.1 15 0 15 C0 10.05 0 5.1 0 0 Z " fill="#FFFFFF" transform="translate(0,0)"/>
<path d="M0 0 C4.95 0 9.9 0 15 0 C15 4.95 15 9.9 15 15 C5.625 16.25 5.625 16.25 0 14 C0 9.38 0 4.76 0 0 Z " fill="#FEFEFE" transform="translate(195,15)"/>
<path d="M0 0 C4.95 0 9.9 0 15 0 C15 4.95 15 9.9 15 15 C2.25 15.125 2.25 15.125 0 14 C0 9.38 0 4.76 0 0 Z " fill="#EEEEEF" transform="translate(225,30)"/>
<path d="M0 0 C0 4.95 0 9.9 0 15 C-4.95 15 -9.9 15 -15 15 C-15.49107143 4.6875 -15.49107143 4.6875 -13.125 1.375 C-8.41168749 -1.67479045 -5.50993239 -0.70841988 0 0 Z " fill="#FEFEFE" transform="translate(315,270)"/>
<path d="M0 0 C0 4.95 0 9.9 0 15 C-4.95 15 -9.9 15 -15 15 C-15.33 12.69 -15.66 10.38 -16 8 C-13.71125827 6.66141476 -11.41930344 5.32898986 -9.125 4 C-8.47402344 3.6184375 -7.82304687 3.236875 -7.15234375 2.84375 C-2.2265625 0 -2.2265625 0 0 0 Z " fill="#EAECEF" transform="translate(225,315)"/>
<path d="M0 0 C4.95 0 9.9 0 15 0 C15 4.29 15 8.58 15 13 C13.515 12.360625 12.03 11.72125 10.5 11.0625 C5.9142346 9.21382249 1.91510951 8.36408219 -3 8 C-2.01 7.34 -1.02 6.68 0 6 C0 4.02 0 2.04 0 0 Z " fill="#E9ECEF" transform="translate(180,15)"/>
<path d="M0 0 C6.03748977 0.80499864 12.01270113 1.88482498 18 3 C17.01 3.33 16.02 3.66 15 4 C15 6.31 15 8.62 15 11 C10.05 11 5.1 11 0 11 C0 7.37 0 3.74 0 0 Z " fill="#E7EBEF" transform="translate(165,334)"/>
<path d="M0 0 C0.66 0.33 1.32 0.66 2 1 C1.67 4.96 1.34 8.92 1 13 C-3.95 13 -8.9 13 -14 13 C-14 10.69 -14 8.38 -14 6 C-11.71220962 4.96959833 -9.42048864 3.95047982 -7.125 2.9375 C-6.47402344 2.64294922 -5.82304687 2.34839844 -5.15234375 2.04492188 C-3.45989459 1.30338487 -1.73131425 0.64560999 0 0 Z " fill="#FCFDFE" transform="translate(194,332)"/>
<path d="M0 0 C4.95 0 9.9 0 15 0 C15 1.98 15 3.96 15 6 C15.66 6.33 16.32 6.66 17 7 C16.32453125 7.19335938 15.6490625 7.38671875 14.953125 7.5859375 C13.61507812 7.97652344 13.61507812 7.97652344 12.25 8.375 C11.36828125 8.63023438 10.4865625 8.88546875 9.578125 9.1484375 C7.02137668 9.91878431 7.02137668 9.91878431 4.859375 11.1015625 C3 12 3 12 0 12 C0 8.04 0 4.08 0 0 Z " fill="#FCFDFE" transform="translate(165,15)"/>
<path d="M0 0 C2.31 0 4.62 0 7 0 C7 4.95 7 9.9 7 15 C5.02 15 3.04 15 1 15 C1 19.62 1 24.24 1 29 C0.67 29 0.34 29 0 29 C0 19.43 0 9.86 0 0 Z " fill="#FFFFFF" transform="translate(323,225)"/>
<path d="M0 0 C0.33 5.94 0.66 11.88 1 18 C0.67 17.34 0.34 16.68 0 16 C-2.31 16 -4.62 16 -7 16 C-7 11.05 -7 6.1 -7 1 C-1 0 -1 0 0 0 Z " fill="#FFFFFF" transform="translate(37,239)"/>
<path d="M0 0 C1.98 0 3.96 0 6 0 C7.14229879 3.42689636 6.90861076 5.61102218 6.5625 9.1875 C6.46066406 10.27417969 6.35882813 11.36085938 6.25390625 12.48046875 C6.12822266 13.72763672 6.12822266 13.72763672 6 15 C4.02 15 2.04 15 0 15 C0 10.05 0 5.1 0 0 Z " fill="#EEEEEF" transform="translate(30,105)"/>
<path d="M0 0 C1.98 0 3.96 0 6 0 C6 4.95 6 9.9 6 15 C4.02 15 2.04 15 0 15 C0 10.05 0 5.1 0 0 Z " fill="#EEEEEF" transform="translate(324,240)"/>
<path d="M0 0 C1.98 0 3.96 0 6 0 C6 4.95 6 9.9 6 15 C4.02 15 2.04 15 0 15 C0 10.05 0 5.1 0 0 Z " fill="#EEEEEF" transform="translate(30,225)"/>
<path d="M0 0 C1.98 0 3.96 0 6 0 C6 4.95 6 9.9 6 15 C4.02 15 2.04 15 0 15 C0 10.05 0 5.1 0 0 Z " fill="#EEEEEF" transform="translate(324,210)"/>
<path d="M0 0 C1.98 0 3.96 0 6 0 C6 4.95 6 9.9 6 15 C4.02 15 2.04 15 0 15 C0 10.05 0 5.1 0 0 Z " fill="#EEEEEF" transform="translate(30,195)"/>
<path d="M0 0 C1.98 0 3.96 0 6 0 C6 4.95 6 9.9 6 15 C4.02 15 2.04 15 0 15 C0 10.05 0 5.1 0 0 Z " fill="#EEEEEF" transform="translate(324,180)"/>
<path d="M0 0 C1.98 0 3.96 0 6 0 C6 4.95 6 9.9 6 15 C4.02 15 2.04 15 0 15 C0 10.05 0 5.1 0 0 Z " fill="#EEEEEF" transform="translate(30,165)"/>
<path d="M0 0 C1.98 0 3.96 0 6 0 C6 4.95 6 9.9 6 15 C4.02 15 2.04 15 0 15 C0 10.05 0 5.1 0 0 Z " fill="#EEEEEF" transform="translate(324,150)"/>
<path d="M0 0 C1.98 0 3.96 0 6 0 C6 4.95 6 9.9 6 15 C4.02 15 2.04 15 0 15 C0 10.05 0 5.1 0 0 Z " fill="#EEEEEF" transform="translate(30,135)"/>
<path d="M0 0 C1.98 0 3.96 0 6 0 C6 4.95 6 9.9 6 15 C4.02 15 2.04 15 0 15 C0 10.05 0 5.1 0 0 Z " fill="#EEEEEF" transform="translate(324,120)"/>
<path d="M0 0 C0.66 0.33 1.32 0.66 2 1 C1.67 3.64 1.34 6.28 1 9 C-2.96 9 -6.92 9 -11 9 C-11.33 8.34 -11.66 7.68 -12 7 C-10.04754815 5.80285445 -8.08785003 4.61751926 -6.125 3.4375 C-5.03445312 2.77621094 -3.94390625 2.11492187 -2.8203125 1.43359375 C-1.88960937 0.96050781 -0.95890625 0.48742187 0 0 Z " fill="#E3EAEF" transform="translate(239,306)"/>
<path d="M0 0 C5.23518706 1.43967644 9.63026009 3.81696611 14 7 C14 7.33 14 7.66 14 8 C9.38 8 4.76 8 0 8 C0 5.36 0 2.72 0 0 Z " fill="#F7FAFC" transform="translate(120,307)"/>
<path d="M0 0 C3.63 0 7.26 0 11 0 C11.33 0.66 11.66 1.32 12 2 C8.04 3.98 4.08 5.96 0 8 C0 5.36 0 2.72 0 0 Z " fill="#EDEFF0" transform="translate(120,45)"/>
<path d="M0 0 C3.3 0 6.6 0 10 0 C6.71301551 3.28698449 4.13409279 4.93295361 0 7 C-0.99 6.67 -1.98 6.34 -3 6 C-2.34 5.67 -1.68 5.34 -1 5 C-0.34444881 2.47266765 -0.34444881 2.47266765 0 0 Z " fill="#F9FBFD" transform="translate(150,30)"/>
<path d="M0 0 C0 1.98 0 3.96 0 6 C-3.3 6 -6.6 6 -10 6 C-4.4 0 -4.4 0 0 0 Z " fill="#F9FBFD" transform="translate(210,324)"/>
<path d="M0 0 C4.21912747 0.4794463 6.79663178 1.16625119 10 4 C6.78548731 5.60725635 3.56387464 5.05748185 0 5 C0 3.35 0 1.7 0 0 Z " fill="#E6ECF0" transform="translate(150,325)"/>
<path d="M0 0 C4.61513112 1.31860889 8.09897612 3.21355437 12 6 C8.7169902 7.6415049 5.57454967 6.51888624 2 6 C1.34 4.02 0.68 2.04 0 0 Z " fill="#F7FAFC" transform="translate(43,264)"/>
<path d="M0 0 C2.97 0 5.94 0 9 0 C9 1.65 9 3.3 9 5 C5.26512223 4.5020163 3.18762365 4.12508244 0 2 C0 1.34 0 0.68 0 0 Z " fill="#EBEDF0" transform="translate(201,30)"/>
<path d="M0 0 C1.98 0 3.96 0 6 0 C6.309375 0.78375 6.61875 1.5675 6.9375 2.375 C7.92875038 4.92330128 7.92875038 4.92330128 9 7 C5.88626628 5.50079488 2.87771795 3.91847864 0 2 C0 1.34 0 0.68 0 0 Z " fill="#F6F9FB" transform="translate(309,90)"/>
<path d="M0 0 C0 1.32 0 2.64 0 4 C-2.875 4.125 -2.875 4.125 -6 4 C-6.66 3.34 -7.32 2.68 -8 2 C-4.91190305 0.23537317 -3.76687864 0 0 0 Z " fill="#E4EAF0" transform="translate(315,266)"/>
<path d="M0 0 C-1.26239712 0.86658615 -2.53527501 1.71792059 -3.8125 2.5625 C-4.87404297 3.27599609 -4.87404297 3.27599609 -5.95703125 4.00390625 C-8 5 -8 5 -11 4 C-8.32997607 0.73663741 -4.08378642 -2.04189321 0 0 Z " fill="#F3F7FA" transform="translate(83,74)"/>
</svg>
