<?xml version="1.0" encoding="UTF-8"?>
<svg version="1.1" xmlns="http://www.w3.org/2000/svg" width="512" height="512">
<path d="M0 0 C0.33 0.33 0.66 0.66 1 1 C2.60701472 1.11123771 4.21888569 1.15295939 5.8296814 1.1673584 C7.39817337 1.18459457 7.39817337 1.18459457 8.99835205 1.20217896 C10.15566833 1.20958099 11.31298462 1.21698303 12.50537109 1.22460938 C14.32251114 1.24169449 14.32251114 1.24169449 16.17636108 1.25912476 C20.20870298 1.29430237 24.24101098 1.32092885 28.2734375 1.34375 C29.3033521 1.3496688 29.3033521 1.3496688 30.35407305 1.35570717 C36.83511466 1.39215691 43.31616716 1.42359453 49.79727745 1.44481659 C58.07591023 1.47232565 66.35368002 1.52293525 74.6319536 1.60529089 C80.45714166 1.66126538 86.28209715 1.69007967 92.10754454 1.6992898 C95.58308093 1.70552333 99.0576073 1.72342347 102.53284836 1.77067566 C106.42237394 1.82289826 110.31079519 1.81886657 114.20068359 1.81054688 C115.33775757 1.83414276 116.47483154 1.85773865 117.6463623 1.88204956 C125.02612873 1.80598947 129.49929009 0.13220453 135.48830605 -4.19207001 C151.09400033 -15.42512756 171.45485371 -19.41398008 190.3125 -19.3125 C191.40481934 -19.30758545 192.49713867 -19.3026709 193.62255859 -19.29760742 C202.1021442 -19.17510637 209.81130829 -18.33019223 218 -16 C219.80210937 -15.50693359 219.80210937 -15.50693359 221.640625 -15.00390625 C237.69111887 -10.15182181 251.3817044 -1.93039372 264 9 C264.74507813 9.64324219 265.49015625 10.28648438 266.2578125 10.94921875 C299.71217694 42.16877747 309.48649811 101.67570364 316 145 C316.19464844 146.27520508 316.38929688 147.55041016 316.58984375 148.86425781 C319.4303435 167.96986588 320.38773942 186.94178693 320.4375 206.25 C320.4467601 207.76222137 320.4467601 207.76222137 320.45620728 209.30499268 C320.56413108 236.63174652 317.44154264 263.93476483 306 289 C305.56171875 289.97195313 305.1234375 290.94390625 304.671875 291.9453125 C297.82434472 305.75843394 286.3889027 316.22043796 271.875 321.4375 C253.3314293 326.51281378 235.27391402 321.35535881 218.93017578 312.14160156 C201.51346708 301.84049735 185.93605501 287.4493457 173 272 C172.5570459 271.47615723 172.1140918 270.95231445 171.65771484 270.41259766 C148.76099488 243.23822107 148.76099488 243.23822107 145.25571537 234.04878426 C144.1117545 231.48817972 143.08263421 229.89844405 141 228 C136.21784955 226.70586439 131.40785062 226.80150105 126.48608398 226.80615234 C124.98753386 226.77892709 123.48903967 226.74845864 121.99061584 226.71499634 C117.92392678 226.6358293 113.85851253 226.60880404 109.79112887 226.5960803 C107.24622486 226.58593802 104.70164759 226.56490821 102.156847 226.54008865 C93.26641109 226.45409169 84.3769228 226.41165735 75.48608398 226.40771484 C67.21855659 226.40285422 58.9560661 226.30105266 50.68995804 226.15393102 C43.57869726 226.03186766 36.46908635 225.97988601 29.35678536 225.98104441 C25.11459479 225.98047981 20.87722365 225.95210977 16.63610649 225.85233688 C-0.16876041 224.764941 -0.16876041 224.764941 -15.55604172 229.76026154 C-19.5615877 233.90223972 -21.94306357 238.50400915 -24.05042839 243.82011795 C-25.49217223 247.12985414 -27.51403272 249.67374123 -29.75 252.5 C-30.47058594 253.44101562 -31.19117188 254.38203125 -31.93359375 255.3515625 C-32.61550781 256.22554688 -33.29742187 257.09953125 -34 258 C-34.63035156 258.81210937 -35.26070312 259.62421875 -35.91015625 260.4609375 C-47.6716783 275.38623653 -59.99174022 289.24180476 -75 301 C-75.92425781 301.7528125 -76.84851563 302.505625 -77.80078125 303.28125 C-94.89786187 316.79233942 -115.05372444 324.77996526 -137 323 C-150.85393364 320.51646546 -162.39270394 312.771508 -170.80078125 301.609375 C-186.6591703 278.12067459 -192.07406635 247.99751185 -192.203125 220.10546875 C-192.21013931 219.08815674 -192.21715363 218.07084473 -192.22438049 217.02270508 C-192.24183265 213.74425803 -192.2482362 210.46599185 -192.25 207.1875 C-192.25067474 206.06574371 -192.25134949 204.94398743 -192.25204468 203.78823853 C-192.23534919 186.31305273 -191.61995542 169.3015924 -189 152 C-188.83902832 150.88206055 -188.67805664 149.76412109 -188.51220703 148.61230469 C-184.38589148 120.49310919 -177.87659566 92.66169493 -168.9375 65.6875 C-168.7001413 64.9637619 -168.46278259 64.2400238 -168.2182312 63.49435425 C-165.54458976 55.40929493 -162.5025331 47.58145044 -158.90625 39.859375 C-158.58498642 39.16684128 -158.26372284 38.47430756 -157.932724 37.76078796 C-154.77361502 31.16620898 -150.7145846 25.59755663 -146 20 C-145.29101562 19.14019531 -144.58203125 18.28039062 -143.8515625 17.39453125 C-134.44557726 6.44351955 -123.69241241 -1.40999309 -111 -8 C-110.10925781 -8.47179687 -109.21851562 -8.94359375 -108.30078125 -9.4296875 C-73.49072017 -26.59483247 -31.58761228 -21.21012583 0 0 Z " fill="#31465A" transform="translate(192,104)"/>
<path d="M0 0 C1.61417627 -0.03047631 3.22825145 -0.06677425 4.84217834 -0.1084137 C9.20723236 -0.20179329 13.56803366 -0.20624234 17.93389106 -0.1884706 C21.58928391 -0.18095302 25.2438301 -0.21524026 28.89904052 -0.24870855 C37.5316517 -0.3262586 46.16213128 -0.32951383 54.79492188 -0.28710938 C63.67231186 -0.24487022 72.54192429 -0.33087251 81.41798657 -0.48009986 C89.06298417 -0.60385553 96.70552067 -0.64535585 104.35148174 -0.62263566 C108.90797429 -0.61000262 113.45892533 -0.62773885 118.01450157 -0.72563744 C145.56070616 -1.26805299 145.56070616 -1.26805299 152.8263588 3.99889755 C157.41935551 8.88335292 160.30056112 14.30811508 162.86283302 20.45888329 C164.40490295 23.91485334 166.4288973 26.58676566 168.7746582 29.54760742 C169.82073242 30.90885742 169.82073242 30.90885742 170.88793945 32.29760742 C176.66255462 39.60559498 182.57702607 46.72101091 188.8605957 53.59838867 C190.69600657 55.62825757 192.45597264 57.69970102 194.2121582 59.79760742 C212.72310523 80.89246238 239.27760887 100.69553059 268.0871582 102.92260742 C283.09751024 103.40776082 295.24720416 99.24789463 306.3996582 89.23510742 C307.18211914 88.48874023 307.96458008 87.74237305 308.77075195 86.97338867 C310.74897045 85.12211468 312.76328784 83.50038456 314.9621582 81.92260742 C314.45515146 87.76618517 313.26954019 92.41472319 310.8371582 97.73510742 C310.52512451 98.42797852 310.21309082 99.12084961 309.89160156 99.8347168 C302.90963116 114.96611738 293.46140189 126.39816986 277.96606445 133.24682617 C261.84866179 138.98148255 245.2107374 136.35354759 229.93261719 129.28881836 C209.04784714 119.10601947 190.77949797 102.61874463 175.9621582 84.92260742 C175.5192041 84.39876465 175.07625 83.87492187 174.61987305 83.33520508 C151.72315309 56.16082849 151.72315309 56.16082849 148.21787357 46.97139168 C147.0739127 44.41078714 146.04479241 42.82105147 143.9621582 40.92260742 C139.18000776 39.62847181 134.37000882 39.72410847 129.44824219 39.72875977 C127.94969206 39.70153451 126.45119787 39.67106606 124.95277405 39.63760376 C120.88608498 39.55843672 116.82067074 39.53141147 112.75328708 39.51868773 C110.20838306 39.50854544 107.66380579 39.48751564 105.1190052 39.46269608 C96.22856929 39.37669911 87.33908101 39.33426477 78.44824219 39.33032227 C70.18071479 39.32546164 61.9182243 39.22366008 53.65211624 39.07653844 C46.54085546 38.95447508 39.43124455 38.90249343 32.31894356 38.90365183 C28.07675299 38.90308724 23.83938185 38.8747172 19.59826469 38.77494431 C2.79339779 37.68754842 2.79339779 37.68754842 -12.59388351 42.68286896 C-16.59942949 46.82484714 -18.98090537 51.42661657 -21.08827019 56.74272537 C-22.53001403 60.05246157 -24.55187451 62.59634865 -26.7878418 65.42260742 C-27.8687207 66.83413086 -27.8687207 66.83413086 -28.97143555 68.27416992 C-29.65334961 69.1481543 -30.33526367 70.02213867 -31.0378418 70.92260742 C-31.66819336 71.7347168 -32.29854492 72.54682617 -32.94799805 73.38354492 C-44.7095201 88.30884395 -57.02958202 102.16441218 -72.0378418 113.92260742 C-72.96209961 114.67541992 -73.88635742 115.42823242 -74.83862305 116.20385742 C-91.93570366 129.71494684 -112.09156624 137.70257268 -134.0378418 135.92260742 C-147.89177544 133.43907288 -159.43054574 125.69411542 -167.83862305 114.53198242 C-174.58008128 104.54685138 -180.11735294 92.87231585 -182.0378418 80.92260742 C-181.3778418 80.92260742 -180.7178418 80.92260742 -180.0378418 80.92260742 C-178.62768555 82.42651367 -178.62768555 82.42651367 -176.9753418 84.48510742 C-166.22811423 97.02723279 -153.3987174 101.9094209 -137.2253418 103.23510742 C-104.09910329 102.00568001 -76.25475887 77.46456197 -54.7878418 54.42260742 C-46.30511581 45.13120051 -38.8129348 35.0829752 -31.4128418 24.92260742 C-30.91083252 24.23593994 -30.40882324 23.54927246 -29.89160156 22.84179688 C-29.39072021 22.14658936 -28.88983887 21.45138184 -28.3737793 20.73510742 C-27.61583557 19.70098835 -27.61583557 19.70098835 -26.84257984 18.64597797 C-24.92457824 15.87164817 -24.92457824 15.87164817 -23.30714703 12.45772839 C-17.73845118 1.60634944 -11.93845164 -0.14938005 0 0 Z " fill="#2C3E50" transform="translate(189.037841796875,291.077392578125)"/>
<path d="M0 0 C4.68061226 1.96708658 7.38044139 4.5058782 9.95800781 8.83398438 C11.98339598 13.9855582 11.46410387 19.4269667 11.26953125 24.875 C11.24697266 26.07898438 11.22441406 27.28296875 11.20117188 28.5234375 C11.14260384 31.47526661 11.06063147 34.42446573 10.95703125 37.375 C11.70799072 37.35405273 12.4589502 37.33310547 13.23266602 37.31152344 C16.66148289 37.2279647 20.09008494 37.17621306 23.51953125 37.125 C25.29166992 37.07472656 25.29166992 37.07472656 27.09960938 37.0234375 C33.97451677 36.94640773 38.42384541 37.14826082 43.95703125 41.375 C47.25746598 44.92931432 48.22373733 47.63546873 48.39453125 52.375 C48.13945213 58.03775638 46.75333643 61.67323719 42.58203125 65.625 C38.11909181 68.60029296 34.57615709 69.62761097 29.21875 69.5703125 C28.15205078 69.56386719 27.08535156 69.55742187 25.98632812 69.55078125 C24.33213867 69.52564453 24.33213867 69.52564453 22.64453125 69.5 C20.96133789 69.48646484 20.96133789 69.48646484 19.24414062 69.47265625 C16.48155216 69.44914486 13.71940193 69.41628155 10.95703125 69.375 C10.9727417 70.10090332 10.98845215 70.82680664 11.00463867 71.57470703 C11.0672348 74.88305788 11.10610037 78.19128381 11.14453125 81.5 C11.16966797 82.64210938 11.19480469 83.78421875 11.22070312 84.9609375 C11.27978821 91.73602704 11.19674283 96.7378838 6.4921875 102.01953125 C1.54247944 105.94516178 -1.68754477 106.75040593 -8.01953125 106.65625 C-12.58328959 106.02190521 -15.38955567 103.09905233 -18.35546875 99.8125 C-20.99338231 96.00218042 -21.16357098 93.13363872 -21.140625 88.61328125 C-21.13740234 87.49501953 -21.13417969 86.37675781 -21.13085938 85.22460938 C-21.11829102 83.47374023 -21.11829102 83.47374023 -21.10546875 81.6875 C-21.10095703 80.50865234 -21.09644531 79.32980469 -21.09179688 78.11523438 C-21.08000148 75.20177211 -21.06354145 72.28841137 -21.04296875 69.375 C-22.11611328 69.41427612 -22.11611328 69.41427612 -23.2109375 69.4543457 C-26.48805315 69.55900779 -29.76481612 69.62354496 -33.04296875 69.6875 C-34.16832031 69.72939453 -35.29367188 69.77128906 -36.453125 69.81445312 C-43.6649366 69.91988897 -48.51006061 69.1915738 -54.04296875 64.375 C-58.02029674 60.0127693 -58.44903 55.66456543 -58.390625 49.94921875 C-57.8415736 45.88377073 -56.0157235 43.14223097 -53.04296875 40.375 C-49.11330763 37.56298895 -46.45158068 37.01374011 -41.6484375 37.08203125 C-40.44638672 37.09169922 -39.24433594 37.10136719 -38.00585938 37.11132812 C-36.13704102 37.1490332 -36.13704102 37.1490332 -34.23046875 37.1875 C-32.33264648 37.20780273 -32.33264648 37.20780273 -30.39648438 37.22851562 C-27.27821232 37.26381682 -24.16080833 37.31313181 -21.04296875 37.375 C-21.06915283 36.62927734 -21.09533691 35.88355469 -21.12231445 35.11523438 C-21.22692426 31.70204142 -21.29149844 28.28918672 -21.35546875 24.875 C-21.39736328 23.70195312 -21.43925781 22.52890625 -21.48242188 21.3203125 C-21.58385527 14.09825509 -21.10069192 8.8165331 -16.04296875 3.375 C-11.15564951 -0.71473335 -6.14531751 -1.88002065 0 0 Z " fill="#EAEEEF" transform="translate(133.04296875,149.625)"/>
<path d="M0 0 C4.43537149 3.15404195 8.09320818 6.82312781 9.328125 12.27734375 C9.59806736 17.91721098 8.09638531 21.47356349 4.8125 26 C0.22989675 30.24729081 -3.63414483 31.48021776 -9.76953125 31.41015625 C-15.32705129 30.46744283 -19.03040827 26.62716024 -22.1875 22.1875 C-23.95460304 16.55485906 -24.21239378 12.01182854 -21.5 6.6875 C-15.23056613 -0.59859882 -9.28267598 -2.91221207 0 0 Z " fill="#3396D8" transform="translate(391.1875,225)"/>
<path d="M0 0 C4.77604898 1.99449236 7.62263764 4.62243433 10.11328125 9.15625 C11.57308626 12.97057922 11.7614151 16.37611759 10.9609375 20.37109375 C8.42853368 25.34210865 4.97232616 28.86539942 -0.0390625 31.37109375 C-4.99388344 31.91469821 -8.91032102 31.93546449 -13.4140625 29.68359375 C-16.88414798 26.62661369 -20.68076487 23.25509596 -21.27734375 18.453125 C-21.46205019 12.80499639 -20.86512807 8.69015376 -17.0390625 4.37109375 C-11.75955525 -0.15256214 -6.9227286 -2.13517108 0 0 Z " fill="#EDC110" transform="translate(389.0390625,149.62890625)"/>
<path d="M0 0 C4.12593192 2.87855716 7.06537651 6.00862953 8.6875 10.875 C9.08533285 16.14628523 8.51400536 19.3915777 5.6875 23.875 C2.28510275 27.70269691 0.17876813 29.58726582 -4.984375 30.18359375 C-14.32088334 30.57458966 -14.32088334 30.57458966 -18.4375 27.1875 C-23.01422053 22.388068 -23.83132153 17.89762457 -23.6953125 11.37890625 C-22.91171344 6.25352871 -19.87963285 3.26303195 -16.125 -0.0625 C-10.7384809 -2.09740722 -5.40937701 -1.83714691 0 0 Z " fill="#E44B3C" transform="translate(354.3125,188.125)"/>
<path d="M0 0 C4.34373348 2.22324423 6.91301426 4.92336079 8.94140625 9.3046875 C9.79254103 15.243287 9.42249499 20.2631107 5.94140625 25.3046875 C0.65496319 30.07538002 -2.90048568 30.81834493 -9.9296875 30.79296875 C-14.95270012 30.00910286 -17.98525407 27.23687827 -21.05859375 23.3046875 C-22.99221245 17.5038314 -23.05218394 11.4065129 -20.43359375 5.8671875 C-14.55214855 -0.47858232 -8.42689376 -2.84627531 0 0 Z " fill="#2DCA70" transform="translate(428.05859375,187.6953125)"/>
</svg>
