<?xml version="1.0" encoding="UTF-8"?>
<svg version="1.1" xmlns="http://www.w3.org/2000/svg" width="225" height="225">
<path d="M0 0 C74.25 0 148.5 0 225 0 C225 74.25 225 148.5 225 225 C150.75 225 76.5 225 0 225 C0 150.75 0 76.5 0 0 Z " fill="#7F7F7F" transform="translate(0,0)"/>
<path d="M0 0 C3.64568869 1.45827548 6.60456143 2.83137257 9.9296875 4.80078125 C10.87884033 5.35950928 11.82799316 5.9182373 12.8059082 6.49389648 C13.8187085 7.09403564 14.83150879 7.6941748 15.875 8.3125 C25.21360635 13.80995721 34.60097042 19.20524346 44.07177734 24.47192383 C48.63182588 27.0249999 53.09017825 29.66752193 57.48046875 32.50390625 C61.9372877 35.37682214 66.49121145 37.93877205 71.16552734 40.4375 C74.20564509 42.11336163 77.15755611 43.89840753 80.11328125 45.71875 C81.13357422 46.34007812 82.15386719 46.96140625 83.20507812 47.6015625 C85.30486523 48.88439912 87.39587204 50.18170233 89.47851562 51.4921875 C90.49236328 52.10320312 91.50621094 52.71421875 92.55078125 53.34375 C93.90683472 54.18196289 93.90683472 54.18196289 95.2902832 55.03710938 C98.94198824 56.33473301 100.51349542 55.57251774 104 54 C105.83663347 53.05548379 107.64650115 52.05753662 109.4296875 51.015625 C110.45964844 50.4175 111.48960938 49.819375 112.55078125 49.203125 C113.64777344 48.55859375 114.74476562 47.9140625 115.875 47.25 C117.03746744 46.57241378 118.20023297 45.89533873 119.36328125 45.21875 C122.3414967 43.48455261 125.31598625 41.74407437 128.28942871 40.00170898 C130.90197118 38.4718065 133.51741191 36.94688494 136.1328125 35.421875 C139.06955674 33.70940259 142.00602645 31.99647827 144.94116211 30.28125 C153.51633773 25.27195409 162.11899064 20.31097566 170.72631836 15.35717773 C177.91079704 11.218204 185.07141013 7.04146911 192.19116211 2.79199219 C196.89406698 0 196.89406698 0 198 0 C198 34.32 198 68.64 198 104 C194.29572422 102.51828969 191.12860653 101.04605516 187.69140625 99.1015625 C186.69689453 98.53953125 185.70238281 97.9775 184.67773438 97.3984375 C183.64970703 96.81320313 182.62167969 96.22796875 181.5625 95.625 C180.53833984 95.0475 179.51417969 94.47 178.45898438 93.875 C172.76348447 90.64570685 172.76348447 90.64570685 170 89 C168.91436768 88.47680176 167.82873535 87.95360352 166.71020508 87.41455078 C163.72482317 84.75484201 163.57168054 84.35372171 163.22705078 80.59863281 C163.1861674 78.80056382 163.17753398 77.00157085 163.1953125 75.203125 C163.17475296 73.77996979 163.17475296 73.77996979 163.15377808 72.32806396 C163.11642578 69.30156259 163.12019648 66.27669948 163.125 63.25 C163.10687691 61.19658887 163.08607544 59.14319951 163.0625 57.08984375 C163.0105998 52.05962065 162.99557288 47.03047619 163 42 C159.33904174 43.38289079 155.98295425 45.02896063 152.5703125 46.94140625 C151.52617187 47.52599609 150.48203125 48.11058594 149.40625 48.71289062 C148.3234375 49.32326172 147.240625 49.93363281 146.125 50.5625 C145.08085937 51.14580078 144.03671875 51.72910156 142.9609375 52.33007812 C140.78820525 53.55025276 138.63319629 54.80243042 136.49536133 56.08276367 C133.88079844 57.51687433 131.64914036 58.53175083 128.88549805 59.52075195 C124.499222 61.26927165 120.74030616 63.02296132 118 67 C115.36533583 75.65722698 116.27276772 85.133266 116.5625 94.0625 C116.58954189 96.57480532 116.60979522 99.08719347 116.62304688 101.59960938 C116.67016384 107.73621343 116.80208038 113.86650586 117 120 C121.77197909 118.04332999 126.1741249 115.85886149 130.6328125 113.2421875 C131.86318517 112.5271784 133.09365684 111.81233961 134.32421875 111.09765625 C136.23249544 109.98322266 138.13939275 108.86653863 140.04443359 107.74658203 C141.90370435 106.65561286 143.76788773 105.57345493 145.6328125 104.4921875 C146.73512207 103.84620605 147.83743164 103.20022461 148.97314453 102.53466797 C151.83434905 101.08398789 153.80821749 100.16227224 157 100 C159.52026367 100.98461914 159.52026367 100.98461914 162.16796875 102.53515625 C163.14443359 103.09783203 164.12089844 103.66050781 165.12695312 104.24023438 C166.13693359 104.84158203 167.14691406 105.44292969 168.1875 106.0625 C169.17814453 106.63677734 170.16878906 107.21105469 171.18945312 107.80273438 C177.49717609 111.47155422 183.75109231 115.23206103 190 119 C186.59166354 121.8455204 183.16533016 124.18211602 179.30078125 126.36328125 C177.63112305 127.31074219 177.63112305 127.31074219 175.92773438 128.27734375 C175.33951904 128.60847168 174.75130371 128.93959961 174.14526367 129.28076172 C171.63143941 130.6958971 169.12305265 132.12055205 166.61422729 133.54452515 C165.31659948 134.28088741 164.01868436 135.0167436 162.7204895 135.75210571 C156.45996411 139.29958284 150.22836015 142.89638689 144 146.5 C139.66745768 149.00137198 135.3338408 151.50087855 131 154 C130.38719177 154.35354553 129.77438354 154.70709106 129.14300537 155.0713501 C125.28424847 157.29720195 121.42336798 159.51930024 117.55981445 161.73681641 C116.32411743 162.44675005 115.08907653 163.15782709 113.85473633 163.87011719 C112.13800836 164.86051004 110.41866336 165.84636236 108.69921875 166.83203125 C107.71783936 167.39639893 106.73645996 167.9607666 105.7253418 168.54223633 C104.825979 169.02329834 103.92661621 169.50436035 103 170 C101.75355713 170.67784546 101.75355713 170.67784546 100.48193359 171.36938477 C98 172 98 172 95.39819336 171.01220703 C94.0080603 170.14378174 94.0080603 170.14378174 92.58984375 169.2578125 C91.53192627 168.61183105 90.47400879 167.96584961 89.3840332 167.30029297 C88.82366364 166.9465863 88.26329407 166.59287964 87.6859436 166.22845459 C85.29879198 164.72190705 82.88787059 163.2554472 80.47789001 161.78579712 C79.21722446 161.01637971 77.95785149 160.24484078 76.69972229 159.47128296 C70.72700617 155.80431883 64.65924699 152.31741505 58.5607605 148.86486816 C48.9626851 143.43042102 39.40113051 137.93458067 29.875 132.375 C28.92214111 131.81925293 27.96928223 131.26350586 26.98754883 130.69091797 C25.19776853 129.64458487 23.40983052 128.59509215 21.62402344 127.54199219 C19.78983013 126.46413911 17.94872261 125.39800462 16.10253906 124.34082031 C15.1844043 123.80811523 14.26626953 123.27541016 13.3203125 122.7265625 C12.49031738 122.25041504 11.66032227 121.77426758 10.80517578 121.28369141 C10.20946777 120.86007324 9.61375977 120.43645508 9 120 C9 119.34 9 118.68 9 118 C10.23302856 117.29653442 10.23302856 117.29653442 11.4909668 116.57885742 C14.55697308 114.82929662 17.62269632 113.07924185 20.68823242 111.32885742 C22.01201346 110.57312701 23.33590517 109.81759043 24.65991211 109.06225586 C26.56914325 107.97301041 28.4779679 106.88305557 30.38671875 105.79296875 C30.97337814 105.45847214 31.56003754 105.12397552 32.16447449 104.77934265 C34.72804203 103.31449629 37.19752435 101.85858273 39.60083008 100.13793945 C42 99 42 99 44.45336914 99.61767578 C45.29375732 100.07384277 46.13414551 100.53000977 47 101 C47.91322021 101.47808105 48.82644043 101.95616211 49.76733398 102.44873047 C50.75032471 102.99932129 51.73331543 103.54991211 52.74609375 104.1171875 C54.37321289 105.02791016 54.37321289 105.02791016 56.03320312 105.95703125 C57.15662109 106.58996094 58.28003906 107.22289062 59.4375 107.875 C60.55705078 108.50019531 61.67660156 109.12539062 62.83007812 109.76953125 C71.3179959 114.53485482 71.3179959 114.53485482 75.24243164 117.21142578 C77.73185605 119.18138856 77.73185605 119.18138856 80 119 C80.33062973 111.74217853 80.55765019 104.48630454 80.71411133 97.22265625 C80.77934473 94.75447044 80.86796083 92.28678439 80.98071289 89.8203125 C82.15824395 77.10953078 82.15824395 77.10953078 78.89859009 65.19766235 C75.56531112 61.89686789 71.32243123 60.56191321 67 59 C64.72672425 57.72381499 62.47722155 56.40432832 60.25390625 55.04296875 C58.02456428 53.75585888 55.79409496 52.47069967 53.5625 51.1875 C52.43134766 50.53330078 51.30019531 49.87910156 50.13476562 49.20507812 C45.14617585 46.3305464 40.17021566 43.53794918 35 41 C35.09539063 42.2595752 35.19078125 43.51915039 35.2890625 44.81689453 C37.72387286 80.89106394 37.72387286 80.89106394 31.75830078 88.37744141 C26.37322206 93.12964036 20.1676224 95.81889556 13.32250977 97.84545898 C8.70173661 99.45113436 4.37536174 101.81231913 0 104 C0 69.68 0 35.36 0 0 Z " fill="#4B4B4B" transform="translate(13,53)"/>
<path d="M0 0 C33.99 0 67.98 0 103 0 C103 74.25 103 148.5 103 225 C66.04 225 29.08 225 -9 225 C-5.36720883 222.09376706 -2.28033488 219.88279307 1.69921875 217.63671875 C2.81248535 217.00499756 3.92575195 216.37327637 5.07275391 215.72241211 C5.66098938 215.39127411 6.24922485 215.06013611 6.85528564 214.71896362 C9.36686315 213.30504564 11.87292516 211.8814735 14.37945557 210.45863342 C15.67616536 209.72272457 16.97316501 208.98732624 18.27044678 208.25242615 C25.63673605 204.07844599 32.96710625 199.8426629 40.29589844 195.60327148 C45.34245093 192.68498373 50.39186273 189.77229759 55.45587158 186.88441467 C57.86979506 185.50745129 60.2817271 184.12702008 62.69354248 182.74636841 C64.39876049 181.77213289 66.10682054 180.80287719 67.81494141 179.83374023 C68.84409668 179.24407471 69.87325195 178.65440918 70.93359375 178.046875 C72.2956897 177.27102051 72.2956897 177.27102051 73.68530273 176.47949219 C75.77350796 175.14476761 77.34578204 173.83066332 79 172 C75.14613806 169.74947775 71.29185589 167.49967616 67.4375 165.25 C66.35146484 164.61578125 65.26542969 163.9815625 64.14648438 163.328125 C62.036205 162.09659418 59.92347932 160.86924383 57.80810547 159.64648438 C56.13431611 158.66508675 54.47198632 157.66300549 52.83642578 156.61914062 C49.49337719 154.477838 49.49337719 154.477838 45.63769531 154.234375 C42.71921247 155.08150219 40.39855263 156.25585008 37.76171875 157.765625 C36.77623047 158.32636719 35.79074219 158.88710937 34.77539062 159.46484375 C33.75638672 160.05394531 32.73738281 160.64304688 31.6875 161.25 C30.17639648 162.11044922 30.17639648 162.11044922 28.63476562 162.98828125 C23.55722809 165.89256657 18.5624433 168.84484159 13.72973633 172.14355469 C12 173 12 173 8 173 C7.66941697 165.59973778 7.44236649 158.20138478 7.28588867 150.79541016 C7.22064876 148.27873613 7.13202821 145.7625524 7.01928711 143.24755859 C6.13957781 123.11375925 6.13957781 123.11375925 9.08428955 118.1852417 C11.91249114 115.34483369 15.37359456 113.99135748 19.10977173 112.71325684 C22.374524 111.4813385 25.24765288 109.59780777 28.21875 107.7890625 C29.42731792 107.09093381 30.63826735 106.39691165 31.8515625 105.70703125 C34.31784704 104.30028163 36.78109106 102.88846212 39.2421875 101.47265625 C40.44250923 100.78611011 41.64302281 100.09989927 42.84375 99.4140625 C44.43993164 98.50068115 44.43993164 98.50068115 46.06835938 97.56884766 C48.67216128 96.17544068 51.23522247 95.02817558 54 94 C54.33 94.33 54.66 94.66 55 95 C54.86890554 97.08800407 54.72942158 99.17577104 54.55105591 101.26026917 C52.1952567 121.21388052 52.1952567 121.21388052 57.22155762 139.91424561 C63.28581546 146.66685829 72.34578813 150.04832065 80.7644043 152.87304688 C84 154 84 154 90 157 C90 122.35 90 87.7 90 52 C88.35 51.34 86.7 50.68 85 50 C83.08344321 48.974849 81.1849447 47.91556831 79.30078125 46.83203125 C78.18735352 46.19378418 77.07392578 45.55553711 75.92675781 44.89794922 C74.72195086 44.20289367 73.51719971 43.5077414 72.3125 42.8125 C71.05711328 42.09105251 69.80157708 41.36986506 68.54589844 40.64892578 C65.31879708 38.7949706 62.09403586 36.93698535 58.86993408 35.07781982 C57.09079075 34.05233129 55.31095951 33.02805128 53.53076172 32.00439453 C40.60239011 24.5702477 27.6995932 17.09316891 14.82519531 9.56591797 C9.89749744 6.6852815 4.962195 3.82083284 0 1 C0 0.67 0 0.34 0 0 Z " fill="#FDFDFD" transform="translate(122,0)"/>
<path d="M0 0 C33.99 0 67.98 0 103 0 C100.3116181 2.6883819 98.35264669 4.07072375 95.08203125 5.86328125 C94.08776123 6.41290527 93.09349121 6.9625293 92.0690918 7.52880859 C90.9944165 8.11742676 89.91974121 8.70604492 88.8125 9.3125 C86.52245555 10.58025911 84.23341641 11.84983562 81.9453125 13.12109375 C81.36228867 13.44482971 80.77926483 13.76856567 80.17857361 14.10211182 C74.46809622 17.28063507 68.82300525 20.56592255 63.1875 23.875 C54.17693013 29.15955302 45.13323896 34.3821724 36.0625 39.5625 C35.47149506 39.9002948 34.88049011 40.2380896 34.27157593 40.58612061 C27.53701922 44.4343378 20.78093779 48.23281234 14 52 C14 86.32 14 120.64 14 156 C19.94 152.7 25.88 149.4 32 146 C34.65417969 144.91460937 37.30835938 143.82921875 40.04296875 142.7109375 C43.30173692 140.84058982 45.47223154 139.54430947 46.71783447 135.89953613 C47.89011808 129.50546663 47.5677176 123.08872159 47.3125 116.625 C47.28188639 114.65503851 47.25773421 112.68496538 47.24023438 110.71484375 C47.20652561 107.12590622 47.12796576 103.54284015 47.0168457 99.95556641 C47 96 47 96 48 94 C52.38873422 94.95223841 55.99751864 97.05749745 59.875 99.25 C60.64714844 99.683125 61.41929688 100.11625 62.21484375 100.5625 C68.84996081 104.30592579 75.43244097 108.13952256 82 112 C82.96147949 112.56364258 83.92295898 113.12728516 84.91357422 113.70800781 C85.80834473 114.23749023 86.70311523 114.76697266 87.625 115.3125 C88.42164062 115.78300781 89.21828125 116.25351563 90.0390625 116.73828125 C92 118 92 118 94 120 C94.24050903 122.21463013 94.24050903 122.21463013 94.22705078 125.00048828 C94.22689972 126.04141632 94.22674866 127.08234436 94.22659302 128.15481567 C94.21627045 129.28192963 94.20594788 130.40904358 94.1953125 131.5703125 C94.1924826 132.72167694 94.18965271 133.87304138 94.18673706 135.05929565 C94.17551408 138.74796812 94.15040556 142.43640053 94.125 146.125 C94.11497294 148.62109025 94.10584662 151.1171843 94.09765625 153.61328125 C94.07556784 159.74226984 94.04206947 165.87111777 94 172 C89.73678612 172 88.51282523 171.43167914 84.9296875 169.3671875 C83.46015625 168.52800781 83.46015625 168.52800781 81.9609375 167.671875 C80.94257812 167.07890625 79.92421875 166.4859375 78.875 165.875 C77.87984375 165.30523437 76.8846875 164.73546875 75.859375 164.1484375 C74.87195313 163.58125 73.88453125 163.0140625 72.8671875 162.4296875 C71.88588867 161.86604492 70.90458984 161.30240234 69.89355469 160.72167969 C67.97943892 159.58277112 66.09300387 158.39587063 64.23925781 157.16113281 C62.94906738 156.31180176 62.94906738 156.31180176 61.6328125 155.4453125 C60.8814502 154.92727051 60.13008789 154.40922852 59.35595703 153.87548828 C55.95962345 152.61338961 54.25943024 153.56589262 51 155 C49.23116276 155.92634551 47.48951926 156.90628844 45.77734375 157.93359375 C44.82666016 158.50013672 43.87597656 159.06667969 42.89648438 159.65039062 C41.43178711 160.53500977 41.43178711 160.53500977 39.9375 161.4375 C38.95716797 162.02337891 37.97683594 162.60925781 36.96679688 163.21289062 C31.6131451 166.41354485 31.6131451 166.41354485 26.30688477 169.69165039 C24 171 24 171 22 171 C24.5083512 173.81784037 27.29922938 175.45723723 30.57421875 177.30078125 C31.70424316 177.94088135 32.83426758 178.58098145 33.99853516 179.24047852 C34.59917786 179.57782013 35.19982056 179.91516174 35.81866455 180.26272583 C39.01098198 182.05593474 42.19416646 183.86525434 45.37890625 185.671875 C46.02543152 186.03801407 46.67195679 186.40415314 47.33807373 186.78138733 C53.29631535 190.15857102 59.21574002 193.60035831 65.125 197.0625 C71.4029702 200.73818357 77.68673881 204.40286451 83.9921875 208.03125 C84.87174606 208.53754189 84.87174606 208.53754189 85.76907349 209.05406189 C88.60281236 210.6847291 91.43765307 212.31344068 94.27392578 213.93969727 C99.9201438 217.18598369 105.55073069 220.43046662 111 224 C111 224.33 111 224.66 111 225 C74.37 225 37.74 225 0 225 C0 150.75 0 76.5 0 0 Z " fill="#FDFDFD" transform="translate(0,0)"/>
<path d="M0 0 C0 34.32 0 68.64 0 104 C-3.70427578 102.51828969 -6.87139347 101.04605516 -10.30859375 99.1015625 C-11.30310547 98.53953125 -12.29761719 97.9775 -13.32226562 97.3984375 C-14.35029297 96.81320313 -15.37832031 96.22796875 -16.4375 95.625 C-17.46166016 95.0475 -18.48582031 94.47 -19.54101562 93.875 C-25.23651553 90.64570685 -25.23651553 90.64570685 -28 89 C-29.08563232 88.47680176 -30.17126465 87.95360352 -31.28979492 87.41455078 C-34.27517683 84.75484201 -34.42831946 84.35372171 -34.77294922 80.59863281 C-34.8138326 78.80056382 -34.82246602 77.00157085 -34.8046875 75.203125 C-34.81839386 74.25435486 -34.83210022 73.30558472 -34.84622192 72.32806396 C-34.88357422 69.30156259 -34.87980352 66.27669948 -34.875 63.25 C-34.89312309 61.19658887 -34.91392456 59.14319951 -34.9375 57.08984375 C-34.9894002 52.05962065 -35.00442712 47.03047619 -35 42 C-38.66095826 43.38289079 -42.01704575 45.02896063 -45.4296875 46.94140625 C-46.47382813 47.52599609 -47.51796875 48.11058594 -48.59375 48.71289062 C-49.6765625 49.32326172 -50.759375 49.93363281 -51.875 50.5625 C-52.91914063 51.14580078 -53.96328125 51.72910156 -55.0390625 52.33007812 C-57.21179475 53.55025276 -59.36680371 54.80243042 -61.50463867 56.08276367 C-64.11920156 57.51687433 -66.35085964 58.53175083 -69.11450195 59.52075195 C-73.500778 61.26927165 -77.25969384 63.02296132 -80 67 C-82.63466417 75.65722698 -81.72723228 85.133266 -81.4375 94.0625 C-81.41045811 96.57480532 -81.39020478 99.08719347 -81.37695312 101.59960938 C-81.32983616 107.73621343 -81.19791962 113.86650586 -81 120 C-76.22802091 118.04332999 -71.8258751 115.85886149 -67.3671875 113.2421875 C-66.13681483 112.5271784 -64.90634316 111.81233961 -63.67578125 111.09765625 C-61.76750456 109.98322266 -59.86060725 108.86653863 -57.95556641 107.74658203 C-56.09629565 106.65561286 -54.23211227 105.57345493 -52.3671875 104.4921875 C-51.26487793 103.84620605 -50.16256836 103.20022461 -49.02685547 102.53466797 C-46.16565095 101.08398789 -44.19178251 100.16227224 -41 100 C-38.47973633 100.98461914 -38.47973633 100.98461914 -35.83203125 102.53515625 C-34.85556641 103.09783203 -33.87910156 103.66050781 -32.87304688 104.24023438 C-31.86306641 104.84158203 -30.85308594 105.44292969 -29.8125 106.0625 C-28.82185547 106.63677734 -27.83121094 107.21105469 -26.81054688 107.80273438 C-20.50282391 111.47155422 -14.24890769 115.23206103 -8 119 C-11.40833646 121.8455204 -14.83466984 124.18211602 -18.69921875 126.36328125 C-19.81232422 126.99492187 -20.92542969 127.6265625 -22.07226562 128.27734375 C-22.66048096 128.60847168 -23.24869629 128.93959961 -23.85473633 129.28076172 C-26.36856059 130.6958971 -28.87694735 132.12055205 -31.38577271 133.54452515 C-32.68340052 134.28088741 -33.98131564 135.0167436 -35.2795105 135.75210571 C-41.54003541 139.29958258 -47.77167291 142.89633038 -54 146.5 C-62.84430242 151.6071672 -71.69056365 156.7109547 -80.55004883 161.79174805 C-81.79929952 162.50872196 -83.04800626 163.22664455 -84.29614258 163.94555664 C-86.02798419 164.94283353 -87.76199119 165.93634723 -89.49609375 166.9296875 C-90.98387329 167.78409424 -90.98387329 167.78409424 -92.50170898 168.65576172 C-95 170 -95 170 -98 171 C-98 133.05 -98 95.1 -98 56 C-89.09 51.05 -89.09 51.05 -80 46 C-76.15668678 43.78516757 -72.32212614 41.56275608 -68.5 39.3125 C-66.44824651 38.11011406 -64.39615081 36.90831192 -62.34375 35.70703125 C-61.30347656 35.09811035 -60.26320312 34.48918945 -59.19140625 33.86181641 C-53.80635156 30.72025987 -48.40289829 27.61073515 -43 24.5 C-34.21560268 19.43979011 -25.44397493 14.35838947 -16.6875 9.25 C-15.18413086 8.37311523 -15.18413086 8.37311523 -13.65039062 7.47851562 C-8.43426965 4.43680782 -8.43426965 4.43680782 -3.26098633 1.32324219 C-1 0 -1 0 0 0 Z " fill="#000000" transform="translate(211,53)"/>
<path d="M0 0 C5.61 0 11.22 0 17 0 C17 13.53 17 27.06 17 41 C18.65 41.66 20.3 42.32 22 43 C23.93051057 44.010644 25.84495248 45.05232401 27.74609375 46.1171875 C29.37321289 47.02791016 29.37321289 47.02791016 31.03320312 47.95703125 C32.71833008 48.90642578 32.71833008 48.90642578 34.4375 49.875 C35.55705078 50.50019531 36.67660156 51.12539063 37.83007812 51.76953125 C43.02248364 54.68467405 48.07594599 57.6545841 53 61 C52.82861328 62.7902832 52.82861328 62.7902832 52 65 C49.73779297 66.68823242 49.73779297 66.68823242 46.7421875 68.35546875 C45.6480957 68.97421875 44.55400391 69.59296875 43.42675781 70.23046875 C42.24309858 70.88328421 41.05917438 71.53561946 39.875 72.1875 C38.08333523 73.18904415 36.29379304 74.19430019 34.5045166 75.20010376 C33.32103254 75.86515842 32.13670705 76.52871798 30.95153809 77.19076538 C27.62884405 79.05347183 24.36454102 80.97856933 21.1484375 83.01953125 C20.47312988 83.44661377 19.79782227 83.87369629 19.10205078 84.3137207 C17.37896859 85.41739278 15.66562397 86.53622697 13.953125 87.65625 C10.2949726 89.32080612 8.86498174 88.95381145 5 88 C1.95483398 86.54467773 1.95483398 86.54467773 -1.25390625 84.68359375 C-1.83607407 84.34884537 -2.41824188 84.01409698 -3.01805115 83.66920471 C-4.87128216 82.60048346 -6.71675526 81.51908753 -8.5625 80.4375 C-9.77362618 79.73813098 -10.98521178 79.03955695 -12.19726562 78.34179688 C-20.22143133 73.70544115 -28.13132102 68.89520807 -36 64 C-35.63307686 61.57096878 -35.42374921 60.34093596 -33.47216797 58.77075195 C-32.81877441 58.43003662 -32.16538086 58.08932129 -31.4921875 57.73828125 C-30.75935547 57.34560059 -30.02652344 56.95291992 -29.27148438 56.54833984 C-28.48064453 56.1405127 -27.68980469 55.73268555 -26.875 55.3125 C-25.23568765 54.43861637 -23.59768772 53.56226679 -21.9609375 52.68359375 C-21.13303711 52.24128418 -20.30513672 51.79897461 -19.45214844 51.34326172 C-15.07562922 48.94584946 -10.83481969 46.32579956 -6.59716797 43.69262695 C-2.20705519 41 -2.20705519 41 0 41 C0 27.47 0 13.94 0 0 Z " fill="#FDFDFD" transform="translate(104,0)"/>
</svg>
