<?xml version="1.0" encoding="UTF-8"?>
<svg version="1.1" xmlns="http://www.w3.org/2000/svg" width="866" height="650">
<path d="M0 0 C285.78 0 571.56 0 866 0 C866 214.5 866 429 866 650 C580.22 650 294.44 650 0 650 C0 435.5 0 221 0 0 Z " fill="#000000" transform="translate(0,0)"/>
<path d="M0 0 C1.11458084 -0.00101212 1.11458084 -0.00101212 2.25167847 -0.00204468 C65.28885436 0.08810833 130.65627883 23.6629351 176.8125 67.25 C178.05846449 68.31722946 179.30843956 69.37979557 180.5625 70.4375 C190.54301349 79.16285763 199.73821895 88.73820014 207.8125 99.25 C208.53695313 100.18070312 209.26140625 101.11140625 210.0078125 102.0703125 C220.2189079 115.41233611 229.02353203 129.37185415 236.8125 144.25 C237.225 145.03020508 237.6375 145.81041016 238.0625 146.61425781 C267.96355591 203.87010784 275.15562362 276.00904561 255.96484375 337.8203125 C255.39443359 339.51800781 255.39443359 339.51800781 254.8125 341.25 C254.44535889 342.35553223 254.44535889 342.35553223 254.07080078 343.48339844 C245.46556725 369.2528067 234.84387362 394.14231548 218.8125 416.25 C218.34875977 416.89485352 217.88501953 417.53970703 217.40722656 418.20410156 C203.17951255 437.88719823 187.14287955 456.40611438 167.8125 471.25 C166.53827099 472.26332841 165.26489811 473.27773393 163.9921875 474.29296875 C126.75500509 503.71876519 82.56408834 521.1961457 35.8125 528.25 C34.5138501 528.44698486 34.5138501 528.44698486 33.18896484 528.64794922 C10.84194642 531.85322464 -12.87492522 531.41241217 -35.1875 528.25 C-35.93708984 528.14816406 -36.68667969 528.04632812 -37.45898438 527.94140625 C-48.50689464 526.40513032 -59.1932579 523.90938457 -69.921875 520.88085938 C-72.02540338 520.29513552 -74.1346826 519.74439739 -76.25 519.203125 C-126.32492395 505.979027 -174.57562242 472.06753424 -206.1875 431.25 C-206.97382813 430.26902344 -207.76015625 429.28804688 -208.5703125 428.27734375 C-239.82610321 389.01626857 -257.10016982 341.66040616 -263.1875 292.25 C-263.28538818 291.50242432 -263.38327637 290.75484863 -263.48413086 289.98461914 C-264.42861384 281.94935222 -264.38590642 273.89074431 -264.375 265.8125 C-264.37472809 265.05710937 -264.37445618 264.30171875 -264.37417603 263.5234375 C-264.35508406 251.98883433 -263.93548876 240.66380788 -262.1875 229.25 C-262.08034668 228.50975586 -261.97319336 227.76951172 -261.86279297 227.00683594 C-261.09184336 221.73026378 -260.19270682 216.48684171 -259.1875 211.25 C-259.06181641 210.58919434 -258.93613281 209.92838867 -258.80664062 209.24755859 C-249.31051484 161.00772164 -224.16996182 116.43008162 -190.1875 81.25 C-189.58856934 80.62915527 -188.98963867 80.00831055 -188.37255859 79.36865234 C-180.71233389 71.47120778 -172.98996517 63.88570451 -164.1875 57.25 C-163.55005859 56.76853516 -162.91261719 56.28707031 -162.25585938 55.79101562 C-151.30766112 47.57228508 -140.02479124 40.12155315 -128.1875 33.25 C-127.2912793 32.71947021 -127.2912793 32.71947021 -126.37695312 32.17822266 C-109.05657537 21.9953087 -89.61819581 14.46541144 -70.11962891 9.73535156 C-68.27982745 9.27319269 -66.45732931 8.74370143 -64.63671875 8.2109375 C-56.66738983 5.8883967 -48.68923658 4.38447246 -40.5 3.0625 C-39.46673584 2.89548584 -38.43347168 2.72847168 -37.36889648 2.55639648 C-24.92208076 0.63197833 -12.5769111 0.01038004 0 0 Z " fill="#000000" transform="translate(432.1875,59.75)"/>
<path d="M0 0 C-0.75023437 0.53367188 -1.50046875 1.06734375 -2.2734375 1.6171875 C-17.40648488 12.63343609 -29.64741066 25.16445852 -34 44 C-35.15740369 53.07956038 -35.23669556 63.13685032 -30 71 C-26.69754291 74.08229329 -24.91558245 74.9036229 -20.4375 75.375 C-17.20214389 75.02205206 -14.95994931 74.2649356 -12 73 C-12.00222061 73.86783835 -12.00444122 74.73567671 -12.00672913 75.62981319 C-12.05805364 96.76313901 -12.06518203 117.89607875 -12.02334595 139.02943325 C-12.00417568 149.24949812 -11.99986877 159.46916271 -12.03076172 169.68920898 C-12.05765567 178.59885231 -12.05644844 187.50797706 -12.02174091 196.41760117 C-12.00434395 201.13376605 -12.00085346 205.84900228 -12.03103638 210.5651226 C-12.05902977 215.00858818 -12.04931462 219.45040997 -12.01126289 223.89378548 C-12.00387318 225.52029709 -12.01000324 227.14693806 -12.03101921 228.77333069 C-12.21766082 239.31689204 -12.21766082 239.31689204 -7.21875 248.37904358 C-2.24562119 253.1644179 2.85463082 255.51192547 9.625 256.5625 C20.73112744 255.8987872 32.02432838 250.14868843 41 244 C42.09980886 243.38137321 42.09980886 243.38137321 43.22183609 242.75024891 C46.99273368 240.35428692 49.56136355 238.52614317 50.82711029 234.12224388 C51.13077696 230.49678074 51.14747442 226.96643871 51.06933594 223.32885742 C51.0717114 221.94504127 51.07801194 220.56122717 51.08792114 219.17744446 C51.10327405 215.43254225 51.0628228 211.69012963 51.01134014 207.94562697 C50.96605902 204.01592426 50.96974991 200.08624621 50.96734619 196.15632629 C50.95628092 189.55455346 50.9114597 182.95371863 50.84375 176.35229492 C50.75724956 167.90211996 50.72608598 159.45270116 50.7127037 151.00213146 C50.70071926 143.71214426 50.6632148 136.42231864 50.62166309 129.13244843 C50.60942256 126.80202432 50.60061693 124.47160577 50.59227753 122.14116478 C50.57748156 118.46456346 50.5466801 114.7884076 50.50396347 111.11202812 C50.4841473 109.13407416 50.47841507 107.15599444 50.47323608 105.177948 C50.27587834 91.37085358 46.54453915 80.40979848 36.75 70.4375 C34.84735901 68.6049175 33.35961547 67.17980774 31 66 C31 65.34 31 64.68 31 64 C41.34318912 63.68497901 49.53107284 64.51987834 58.859375 69.09765625 C61.35570683 70.14994211 63.27731861 70.87157163 66 71 C68.14188561 69.32860059 68.14188561 69.32860059 70 66.8125 C92.76672387 39.96424176 126.42420066 21.36194708 161 15 C162.99919888 14.94339754 165.00146412 14.92348638 167 15 C163.03507149 19.72793881 158.97584882 24.23403472 154.44921875 28.44140625 C136.11836625 45.92946093 120.80823095 73.25469816 119.89346504 98.99811554 C119.83467455 102.65615634 119.80764285 106.31320044 119.79125977 109.97167969 C119.7817056 111.37522098 119.77181379 112.77876002 119.76161194 114.18229675 C119.73044678 118.76212844 119.71000462 123.34197722 119.69140625 127.921875 C119.68646027 129.09288364 119.68646027 129.09288364 119.68141437 130.28754902 C119.65067632 137.65316828 119.62398598 145.01879198 119.60699558 152.38445663 C119.58503676 161.79044548 119.54289869 171.19586768 119.47355801 180.60162997 C119.42637419 187.2268489 119.40207086 193.85191441 119.3947987 200.47729611 C119.3898399 204.43133401 119.3747351 208.38473014 119.3350544 212.3385849 C119.29826592 216.05218078 119.28975154 219.76476598 119.30306053 223.4785099 C119.30298069 225.49118164 119.27309094 227.50378282 119.24237061 229.51622009 C119.26887424 232.78957668 119.33555515 235.79508027 120 239 C123.75257014 242.65050344 127.3185268 243.84986846 132.5 244.3125 C155.20624627 243.89815244 174.42637422 220.97782496 189 206 C190.68580974 209.37161948 188.76890992 212.45159141 187.65014648 215.89746094 C187.29122314 216.96254883 186.9322998 218.02763672 186.5625 219.125 C186.19777588 220.21071289 185.83305176 221.29642578 185.45727539 222.41503906 C182.35724268 231.40160586 178.614705 239.70474082 174 248 C173.42507813 249.0621875 172.85015625 250.124375 172.2578125 251.21875 C166.38326524 261.72254879 159.13901552 270.99777593 150.98828125 279.82421875 C149.39293179 281.57001374 147.90064268 283.33288102 146.4375 285.1875 C136.52594912 296.62390486 122.98840243 305.45159759 110 313 C108.97003906 313.61488281 107.94007813 314.22976563 106.87890625 314.86328125 C105.90824219 315.42402344 104.93757812 315.98476563 103.9375 316.5625 C103.08027344 317.05878906 102.22304688 317.55507813 101.33984375 318.06640625 C98.58657983 319.16495396 97.73797739 318.97883846 95 318 C92.94391058 316.02511016 91.06554897 314.06891539 89.1875 311.9375 C88.65632568 311.34767334 88.12515137 310.75784668 87.57788086 310.15014648 C86.04298303 308.44114224 84.51993261 306.72231211 83 305 C82.28585937 304.19820313 81.57171875 303.39640625 80.8359375 302.5703125 C77.48323307 298.77451938 74.22279667 294.9064202 71 291 C67.1093257 291.5515184 65.44340205 293.2481974 62.7890625 296.06079102 C61.96720459 296.92160782 61.14534668 297.78242462 60.29858398 298.66932678 C59.41630127 299.60473801 58.53401855 300.54014923 57.625 301.50390625 C56.69695491 302.46805266 55.76732194 303.43067294 54.83618164 304.39183044 C50.88772011 308.46820377 46.94712689 312.55104617 43.05712891 316.68334961 C40.67330199 319.2136435 38.26039221 321.71288248 35.82659912 324.19511223 C34.46661411 325.59885538 33.13931538 327.0340326 31.81298828 328.46961975 C27.25895092 333.08058799 24.32171964 335.56659578 17.67724609 335.61791992 C15.78002062 335.46236797 13.88598408 335.25831176 12 335 C11.06510742 334.90933762 10.13021484 334.81867523 9.16699219 334.7252655 C6.63732458 334.47556648 4.13834835 334.12941847 1.625 333.75 C0.2644751 333.54866455 0.2644751 333.54866455 -1.12353516 333.34326172 C-8.65623021 332.1682415 -15.74791772 330.37434722 -23 328 C-24.70736328 327.49726562 -24.70736328 327.49726562 -26.44921875 326.984375 C-48.31064888 320.2723251 -67.830688 309.01703357 -85 294 C-85.76908691 293.33145996 -85.76908691 293.33145996 -86.55371094 292.64941406 C-92.90782185 287.08908998 -98.83699729 281.30979354 -104.3125 274.875 C-104.786875 274.31844727 -105.26125 273.76189453 -105.75 273.18847656 C-109 269.2626132 -109 269.2626132 -109 267 C-108.154375 267.15984375 -107.30875 267.3196875 -106.4375 267.484375 C-102.91843746 268.01223438 -99.55711772 268.20319582 -96 268.25 C-94.824375 268.27578125 -93.64875 268.3015625 -92.4375 268.328125 C-88.51606247 267.95380596 -86.26307878 267.20628622 -83 265 C-78.90677548 259.25083131 -79.57097765 252.90575152 -79.59594727 246.14501953 C-79.58565239 244.20251312 -79.58565239 244.20251312 -79.57514954 242.22076416 C-79.55724651 238.67930076 -79.55838127 235.13808553 -79.56409192 231.59659052 C-79.56718854 228.63451422 -79.56108594 225.67248527 -79.55505317 222.71041572 C-79.54101838 215.71885016 -79.54255993 208.72740681 -79.55395508 201.73583984 C-79.5654301 194.53642931 -79.55136887 187.33739157 -79.5245586 180.13803017 C-79.50236422 173.9450275 -79.49577276 167.75214153 -79.50163502 161.55910194 C-79.50499753 157.86554465 -79.50263709 154.17222618 -79.48538399 150.47870255 C-79.46696953 146.35682014 -79.48114019 142.2356574 -79.49829102 138.11376953 C-79.48378906 136.2915538 -79.48378906 136.2915538 -79.46899414 134.43252563 C-79.53347007 127.02502428 -80.13551781 121.14595457 -85.41185856 115.48530769 C-90.46118799 110.98317404 -95.03195533 109.52528681 -101.66015625 109.6796875 C-108.75467664 110.65089062 -114.72178069 115.36799578 -119.2890625 120.64453125 C-129.40911538 134.36921835 -136.43989754 149.92727937 -142 166 C-142.33 166 -142.66 166 -143 166 C-143.65495895 140.67492076 -138.45796468 115.69952064 -127 93 C-126.66242676 92.31147949 -126.32485352 91.62295898 -125.97705078 90.91357422 C-106.48528964 51.31452264 -72.08732364 20.51909034 -30.3125 5.9375 C-5.03852965 -2.51926483 -5.03852965 -2.51926483 0 0 Z " fill="#FDFDFD" transform="translate(407,159)"/>
<path d="M0 0 C0.73686035 0.14598633 1.4737207 0.29197266 2.23291016 0.44238281 C47.45457047 9.40322873 90.69938865 32.88662965 124.625 63.84375 C126.76386558 65.7856148 128.93419385 67.67977596 131.125 69.5625 C137.96567414 75.53604644 144.16252481 82.05166199 150 89 C150.45503906 89.53592773 150.91007812 90.07185547 151.37890625 90.62402344 C160.07922971 100.9097639 167.81811288 111.6049074 175 123 C175.42877441 123.67579102 175.85754883 124.35158203 176.29931641 125.04785156 C211.44366757 180.96617542 223.61397951 247.03696701 214 312 C213.78110519 313.59893852 213.56234468 315.19789542 213.34375 316.796875 C210.48406398 336.59770554 204.6711014 355.56520145 197 374 C196.67773438 374.77682129 196.35546875 375.55364258 196.0234375 376.35400391 C183.80188823 405.48575576 167.26431471 432.14337366 145.609375 455.203125 C143.22522271 457.75859362 140.92257894 460.36700808 138.625 463 C129.1469441 473.52182049 118.30924225 482.52433729 107 491 C106.42636719 491.43054688 105.85273437 491.86109375 105.26171875 492.3046875 C96.52629785 498.81188591 87.49217873 504.65915442 78 510 C77.23864746 510.42925781 76.47729492 510.85851562 75.69287109 511.30078125 C61.61778412 519.14822882 47.07308002 525.33529291 32 531 C31.04923584 531.36222656 30.09847168 531.72445312 29.11889648 532.09765625 C23.57251128 534.17340641 18.09775834 535.86852274 12.3125 537.125 C10.91263514 537.43954716 9.51289489 537.7546494 8.11328125 538.0703125 C7.08267578 538.29908081 7.08267578 538.29908081 6.03125 538.5324707 C4.08110422 538.98133238 2.1435132 539.48371901 0.20703125 539.98828125 C-5.0170779 541.30565974 -10.31395408 542.17507619 -15.625 543.0625 C-16.61628906 543.23587891 -17.60757812 543.40925781 -18.62890625 543.58789062 C-32.12799704 545.85511244 -45.65681555 546.23931296 -59.3125 546.25 C-60.09791168 546.25067474 -60.88332336 546.25134949 -61.6925354 546.25204468 C-75.64131558 546.2331623 -89.22659588 545.32146294 -103 543 C-104.5149707 542.75056641 -104.5149707 542.75056641 -106.06054688 542.49609375 C-153.02511917 534.53599675 -197.21150098 514.20759572 -234 484 C-234.84812256 483.30849854 -234.84812256 483.30849854 -235.71337891 482.60302734 C-249.4148149 471.37074092 -262.13987178 459.02016552 -273 445 C-273.83402344 443.98292969 -274.66804688 442.96585937 -275.52734375 441.91796875 C-283.5056427 432.14419055 -290.32304368 421.69274054 -297 411 C-297.3825293 410.39784668 -297.76505859 409.79569336 -298.15917969 409.17529297 C-334.91994115 350.93850771 -343.42065764 274.6494901 -329.0300293 208.13964844 C-319.88096108 168.90356278 -302.20212429 131.46092999 -277 100 C-276.34515625 99.15179688 -275.6903125 98.30359375 -275.015625 97.4296875 C-263.11192538 82.13195783 -249.24219267 67.95546649 -234 56 C-232.90785637 55.11842219 -231.81675404 54.23555319 -230.7265625 53.3515625 C-217.03192862 42.31490957 -202.52795892 33.23551814 -187 25 C-186.32855957 24.64164063 -185.65711914 24.28328125 -184.96533203 23.9140625 C-128.72667159 -5.87828737 -61.96547916 -13.54912182 0 0 Z M-102 8 C-102.78487793 8.11746582 -103.56975586 8.23493164 -104.37841797 8.35595703 C-114.14116618 9.85808649 -123.51730356 12.41849437 -132.92822266 15.36035156 C-134.89815251 15.96855522 -136.87415774 16.54732568 -138.85546875 17.1171875 C-188.77288847 31.87361127 -236.82999303 64.25674752 -267.79248047 106.38232422 C-269.01798878 108.02409901 -270.28337379 109.62553046 -271.56640625 111.22265625 C-277.34110707 118.44350104 -282.26563263 125.94746212 -286.84375 133.97705078 C-288.03727969 136.06522372 -289.25280274 138.13965876 -290.46875 140.21484375 C-306.00367764 167.07356822 -315.88388205 196.46417649 -321 227 C-321.19464844 228.13050781 -321.38929688 229.26101563 -321.58984375 230.42578125 C-323.70831097 243.33760699 -324.23752777 256.25114335 -324.25 269.3125 C-324.25100708 270.05367065 -324.25201416 270.79484131 -324.25305176 271.55847168 C-324.24089151 284.89826433 -323.18203032 297.82864086 -321 311 C-320.85546387 311.93199219 -320.71092773 312.86398437 -320.56201172 313.82421875 C-318.47003936 327.261029 -315.3172057 340.10874505 -311 353 C-310.74911621 353.763125 -310.49823242 354.52625 -310.23974609 355.3125 C-297.70892251 392.9613796 -276.41646367 426.50166337 -249 455 C-248.4519873 455.56992676 -247.90397461 456.13985352 -247.33935547 456.72705078 C-239.96005089 464.35349925 -232.45350314 471.55377373 -224 478 C-223.46358887 478.41282227 -222.92717773 478.82564453 -222.37451172 479.25097656 C-187.17504821 506.21693925 -146.08414235 525.42473809 -102 532 C-100.80761719 532.19078125 -99.61523438 532.3815625 -98.38671875 532.578125 C-74.13644842 536.28854888 -48.30769656 536.6870971 -24 533 C-23.00145996 532.84934082 -22.00291992 532.69868164 -20.97412109 532.54345703 C26.9715353 525.03007026 71.53385614 505.94792714 109 475 C109.56638184 474.53658203 110.13276367 474.07316406 110.71630859 473.59570312 C124.05301132 462.63773605 136.44744129 450.69086613 147 437 C147.79664063 435.99710937 148.59328125 434.99421875 149.4140625 433.9609375 C178.59716107 397.02066581 196.32050039 353.30043504 203.75 306.9375 C203.92305664 305.8702771 203.92305664 305.8702771 204.09960938 304.78149414 C207.55823435 281.9309878 207.22902438 257.85730684 204 235 C203.89816406 234.25959473 203.79632812 233.51918945 203.69140625 232.75634766 C196.35854986 180.91712682 174.0419326 134.48027514 140 95 C139.41863281 94.30519531 138.83726562 93.61039062 138.23828125 92.89453125 C129.21471241 82.23444614 119.03592371 72.53840208 108 64 C106.99582031 63.20207031 105.99164062 62.40414062 104.95703125 61.58203125 C66.89164622 31.5119011 23.45849069 14.86411528 -24 7 C-24.79664063 6.86432617 -25.59328125 6.72865234 -26.4140625 6.58886719 C-51.02500112 2.55893951 -77.50589626 4.22106232 -102 8 Z " fill="#F8F8F8" transform="translate(492,55)"/>
</svg>
